<?xml version="1.0" encoding="utf-8"?>
<!-- Generator: Adobe Illustrator 16.0.0, SVG Export Plug-In . SVG Version: 6.00 Build 0)  -->
<!DOCTYPE svg PUBLIC "-//W3C//DTD SVG 1.1//EN" "http://www.w3.org/Graphics/SVG/1.1/DTD/svg11.dtd">
<svg version="1.1" id="Capa_1" xmlns="http://www.w3.org/2000/svg" xmlns:xlink="http://www.w3.org/1999/xlink" x="0px" y="0px"
	 width="792px" height="612px" viewBox="0 0 792 612" enable-background="new 0 0 792 612" xml:space="preserve">
<g>
	<path fill-rule="evenodd" clip-rule="evenodd" fill="#028ECF" d="M502.354,229.568c0,5.932-0.036,11.864,0.013,17.796
		c0.029,3.54,0.327,7.066,1.975,10.291c3.343,6.541,10.303,9.934,17.24,8.47c7.49-1.581,12.426-7.441,12.943-15.622
		c0.84-13.247,0.504-26.508,0.071-39.756c-0.115-3.534,0.917-4.666,4.409-4.474c4.922,0.271,9.868,0.105,14.804,0.104
		c1.504,0,2.818-0.017,2.587,2.186c-1.189,11.28,0.688,22.547,0.189,33.831c-0.455,10.254-1.846,20.344-7.844,28.959
		c-8.537,12.263-20.907,17.155-35.353,15.355c-15.856-1.977-25.67-11.86-30.527-26.804c-1.171-3.604-1.862-7.351-1.852-11.204
		c0.039-12.996,0.078-25.992-0.044-38.986c-0.024-2.46,0.419-3.511,3.151-3.43c4.933,0.146,9.888,0.071,14.814-0.227
		c2.905-0.176,3.537,0.939,3.474,3.597C502.246,216.289,502.354,222.93,502.354,229.568z"/>
	<path fill-rule="evenodd" clip-rule="evenodd" fill="#FFFFFF" d="M172.136,510.25c-75.843,0.096-134.917-47.567-147.976-113.573
		c-6.722-33.974-2.632-66.873,11.821-98.619c13.339-29.299,32.52-54.211,54.784-77.072c13.996-14.37,28.62-28.154,41.424-43.653
		c12.348-14.946,21.994-31.271,25.273-50.73c0.862-5.114,1.505-10.267,2.128-15.417c0.18-1.492,0.224-3.043,2.075-3.084
		c2.174-0.048,2.206,1.69,2.234,3.315c0.508,29.442,13.598,53.24,33.147,74.202c15.338,16.446,32.159,31.396,47.724,47.609
		c22.857,23.809,42.422,50.045,53.226,81.421c20.417,59.297,5.392,126.291-48.267,166.887
		C224.447,500.664,195.726,510.061,172.136,510.25z"/>
	<path fill-rule="evenodd" clip-rule="evenodd" fill="#028ECF" d="M472.605,232.078c-5.404-2.513-10.396-4.55-15.747-5.843
		c-9.314-2.25-25.728,8.06-24.513,20.28c1.125,11.33,0.112,22.863,0.32,34.301c0.06,3.261-0.958,3.979-4.057,3.997
		c-5.063,0.03-10.108,0.471-15.19-0.026c-1.932-0.189-2.625-0.559-2.619-2.643c0.074-24.297,0.073-48.594,0.004-72.891
		c-0.006-2.203,0.604-2.969,2.854-2.897c4.656,0.15,9.326,0.16,13.981-0.007c2.074-0.075,2.558,0.672,2.762,2.591
		c0.41,3.847,1.171,7.657,1.705,10.972c2.397-2.096,5.015-4.199,7.424-6.52c9.232-8.896,19.329-10.805,31.048-5.868
		c1.518,0.639,2.093,1.408,2.069,3.085C472.548,217.525,472.605,224.442,472.605,232.078z"/>
	<path fill-rule="evenodd" clip-rule="evenodd" fill="#028ECF" d="M745.865,233.544c0-15.683,0.094-31.367-0.077-47.048
		c-0.035-3.176,0.771-4.186,3.98-3.98c4.502,0.288,9.052,0.294,13.554-0.002c3.227-0.211,3.966,0.833,3.949,3.978
		c-0.133,25.854-0.099,51.71-0.057,77.566c0.01,5.783,0.172,11.569,0.427,17.346c0.115,2.614-0.504,3.9-3.474,3.775
		c-4.937-0.209-9.894-0.205-14.83-0.001c-2.923,0.12-3.535-1.086-3.52-3.737C745.914,265.476,745.865,249.51,745.865,233.544z"/>
	<path fill-rule="evenodd" clip-rule="evenodd" fill="#028ECF" d="M675.174,369.958c2.51-7.812,4.85-14.523,6.768-21.353
		c0.76-2.709,1.964-3.601,4.667-3.443c3.623,0.209,7.268,0.052,11.438,0.052c-4.975,11.817-9.832,23.021-14.375,34.352
		c-1.447,3.608-3.297,5.103-7.38,4.903c-7.93-0.387-7.952-0.108-11.025-7.521c-4.298-10.365-8.579-20.739-13.122-31.726
		c4.972,0,9.428,0.011,13.885-0.004c1.968-0.007,2.077,1.559,2.478,2.868C670.621,354.997,672.723,361.913,675.174,369.958z"/>
	<path fill-rule="evenodd" clip-rule="evenodd" fill="#028ECF" d="M621.314,357.496c-0.001,7.901-0.063,15.803,0.039,23.703
		c0.03,2.296-0.568,3.147-3.06,3.222c-11.748,0.352-11.745,0.435-11.745-11.355c0-13.122,0.074-26.244-0.06-39.363
		c-0.027-2.698,0.597-3.812,3.455-3.515c3.617,0.376,8.33-1.473,10.622,0.69c2.309,2.182,0.635,6.921,0.717,10.534
		C621.405,346.771,621.314,352.135,621.314,357.496z"/>
	<path fill-rule="evenodd" clip-rule="evenodd" fill="#058ECF" d="M574.311,326.043c1.348,10.077,8.892,14.972,15.828,20.601
		c8.106,6.58,10.582,17.44,6.789,26.35c-3.49,8.197-14.142,14.717-22.811,13.961c-9.765-0.85-18.374-8.389-20.56-18.441
		c-1.894-8.712,0.973-16.228,7.158-22.319C566.534,340.465,571.354,334.204,574.311,326.043z"/>
	<path fill-rule="evenodd" clip-rule="evenodd" fill="#028ECF" d="M631.774,364.144c0.001-5.36,0.091-10.722-0.042-16.077
		c-0.055-2.217,0.688-2.821,2.888-2.908c11.922-0.475,11.919-0.539,11.919,11.128c0,8.321-0.072,16.644,0.047,24.963
		c0.033,2.326-0.57,3.11-3.038,3.172c-11.776,0.289-11.774,0.37-11.774-11.393C631.773,370.066,631.773,367.105,631.774,364.144z"/>
	<path fill-rule="evenodd" clip-rule="evenodd" fill="#028ECF" d="M718.004,364.566c-0.002,5.642-0.075,11.284,0.035,16.923
		c0.043,2.198-0.73,2.827-2.922,2.921c-11.882,0.51-11.879,0.571-11.879-11.201c0-8.32,0.081-16.642-0.05-24.961
		c-0.038-2.395,0.7-3.04,3.081-3.096c11.736-0.271,11.734-0.345,11.734,11.375C718.004,359.207,718.004,361.887,718.004,364.566z"/>
	<path fill-rule="evenodd" clip-rule="evenodd" fill="#028ECF" d="M710.706,330.23c0.141,0,0.282,0,0.423,0
		c7.185,0,8.146,1.265,6.913,8.479c-0.272,1.598-1.05,1.712-2.26,1.701c-2.255-0.021-4.51-0.003-6.764-0.003
		c-5.788,0-5.788,0-5.78-5.72C703.244,330.23,703.244,330.23,710.706,330.23z"/>
	<path fill-rule="evenodd" clip-rule="evenodd" fill="#028ECF" d="M639.59,330.23c7.49,0,8.049,0.74,6.996,8.365
		c-0.211,1.526-0.801,1.841-2.12,1.824c-3.522-0.045-7.048-0.083-10.568,0.013c-1.714,0.047-2.034-0.693-2.163-2.247
		C631.072,330.227,631.021,330.23,639.59,330.23z"/>
	<path fill-rule="evenodd" clip-rule="evenodd" fill="#028ECF" d="M400.604,218.231c-2.881-20.606-15.086-32.466-35.655-34.832
		c-13.248-1.524-26.491-0.401-39.723-0.881c-3.205-0.116-3.987,0.809-3.953,3.965c0.17,15.665,0.078,31.333,0.078,47
		c0.071,0,0.142,0,0.212,0c0,7.906,0.028,15.812-0.007,23.717c-0.036,7.902-0.113,15.805-0.218,23.707
		c-0.028,2.081-0.214,3.659,2.922,3.671c13.256,0.051,26.525,0.632,39.726-1.011c16.733-2.083,30.303-9.75,35.289-28.915
		C402.418,242.572,402.319,230.499,400.604,218.231z M378.306,251.931c-2.065,8.74-8.043,13.656-17.022,14.627
		c-5.325,0.576-10.65,0.863-16.039,0.331c-2.458-0.243-3.038-0.973-3.015-3.272c0.103-10.029,0.044-20.061,0.044-30.092
		c0-9.889,0.081-19.78-0.054-29.667c-0.037-2.69,0.596-3.808,3.515-3.604c5.892,0.411,11.806-0.299,17.709,0.926
		c8.083,1.677,13.095,6.494,14.929,14.27C381.231,227.563,381.162,239.838,378.306,251.931z"/>
	<path fill-rule="evenodd" clip-rule="evenodd" fill="#028ECF" d="M646.066,238.015c-4.894-21.039-24.229-35.331-44.833-33.137
		c-21.778,2.319-37.718,19.938-37.854,42.053c-0.109,17.95-0.021,35.901-0.021,53.851c0,8.308,0.001,8.41,8.317,8.266
		c4.324-0.074,10.277,1.952,12.521-0.888c2.125-2.689,0.426-8.376,0.462-12.745c0.065-7.744-0.431-15.508,0.692-24.211
		c1.491,2.147,2.364,3.58,3.406,4.876c4.816,5.989,10.301,10.85,18.61,10.964C631.899,287.381,651.714,262.294,646.066,238.015z
		 M604.48,267.399c-10.747-0.015-20.156-9.745-20.056-20.872c0.112-12.517,8.685-20.82,20.624-21.072
		c11.42-0.241,21.039,9.781,21.008,20.976C626.024,257.784,616.114,267.416,604.48,267.399z"/>
	<path fill-rule="evenodd" clip-rule="evenodd" fill="#028ECF" d="M737.481,245.416c-0.016-2.667-0.096-5.398-0.665-7.986
		c-4.749-21.535-24.863-35.13-47.198-32.021c-18.023,2.51-33.404,18.512-34.815,36.221c-1.635,20.5,9.741,38.291,28.188,43.988
		c11.008,3.4,20.596,1.437,28.146-7.757c1.657-2.019,3.217-4.12,5.453-6.995c0,4.354,0.088,7.603-0.032,10.844
		c-0.074,2.039,0.369,2.931,2.729,3.093c5.217,0.36,10.389,0.352,15.604-0.005c2.236-0.154,2.71-0.759,2.686-2.952
		C737.443,269.703,737.549,257.559,737.481,245.416z M696.04,267.402c-11.597-0.131-20.816-9.812-20.721-21.758
		c0.087-11.063,9.455-19.965,20.935-19.893c11.618,0.074,20.841,9.184,20.774,20.521C716.961,257.796,707.293,267.53,696.04,267.402
		z"/>
	<path fill-rule="evenodd" clip-rule="evenodd" fill="#368DC6" d="M52.687,272.522c4.761-8.551,10.529-16.387,16.915-23.783
		c1.511-0.391,3.042-0.516,4.607-0.513c58.689,0.083,117.378,0.033,176.067,0.033c1.697,0,3.391-0.042,5.007,0.604
		c5.302,5.841,10.103,12.083,14.733,18.46c0.507,0.699,0.947,1.401,0.799,2.317c-2.168,0.333-3.727,1.686-5.264,3.103
		c-1.148,1.06-2.528,1.67-4.106,1.833c-6.203,0.408-12.403,0.182-18.6,0.189c-32.966,0.036-65.933-0.007-98.892,0.035
		c-4.213,0.701-6.802-2.739-10.241-4.024c-17.093-7.717-34.176-8.032-51.247,0.064c-3.21,1.063-5.73,3.807-9.361,3.862
		c-5.134-0.048-10.266,0.069-15.394-0.066C55.81,274.585,53.729,274.723,52.687,272.522z"/>
	<path fill-rule="evenodd" clip-rule="evenodd" fill="#378FC8" d="M255.283,248.862c-1.521,1.023-3.248,0.791-4.93,0.792
		c-58.472,0.003-116.944,0.001-175.416,0.007c-1.838,0-3.684,0.117-5.336-0.922c4.373-6.064,9.288-11.659,14.64-16.875
		c1.829-1.309,3.932-1.415,6.073-1.415c47.705-0.006,95.41-0.006,143.115-0.009c2.165,0,4.204,0.375,6.142,1.325
		C245.28,237.031,250.503,242.743,255.283,248.862z"/>
	<path fill-rule="evenodd" clip-rule="evenodd" fill="#3690CA" d="M239.57,231.766c-46.274,0.026-92.549,0.053-138.823,0.08
		c-5.502,0.003-11.004,0.012-16.506,0.019c5.255-6.376,11.201-12.089,17.127-17.82c1.567-1.159,3.345-1.256,5.231-1.253
		c36.573,0.053,73.146,0.069,109.718-0.012c1.902-0.004,3.64,0.271,5.262,1.245C227.873,219.637,233.938,225.481,239.57,231.766z"/>
	<path fill-rule="evenodd" clip-rule="evenodd" fill="#3793CD" d="M199.38,192.016c6.156,6.257,12.837,11.991,18.57,18.669
		c-0.892,3.022-3.417,2.48-5.605,2.482c-28.268,0.027-56.537,0.017-84.805,0.016c-6.078,0-12.155,0.008-18.233-0.005
		c-2.035-0.004-4.05-0.034-4.766-2.524c6.149-6.246,12.298-12.492,18.447-18.738c1.923-0.986,3.964-1.332,6.122-1.332
		c21.407,0.008,42.813,0.003,64.22,0.011C195.463,190.594,197.57,190.666,199.38,192.016z"/>
	<path fill-rule="evenodd" clip-rule="evenodd" fill="#3277AE" d="M27.382,398.934c-1.585-5.46-2.638-11.004-2.681-16.711
		c-0.645-5.259-0.199-5.812,5.656-5.84c21.12-0.106,42.241,0.053,63.362-0.081c1.125-0.007,2.253,0.104,3.335-0.277
		c4.884-0.156,8.509,2.863,12.495,4.978c1.065,0.966,2.298,1.627,3.703,1.971c0.766,0.332,1.408,0.799,1.727,1.609
		c0.143,1.839-0.997,2.798-2.444,3.543c-2.566,1.321-4.038,3.853-6.199,5.628c-0.906,0.745-1.596,1.94-0.513,2.908
		c3.541,3.163,0.333,4.406-1.563,6.052c-0.474,0.5-0.612,0.933,0.264,1.121c0.956,0.205,1.989,0.195,2.717,1.019
		c0.3,1.133-0.139,2.038-0.865,2.859c-1.607,1.032-3.386,1.667-5.195,2.23c-1.229,0.265-2.493,0.235-3.736,0.401
		c-1.537,0.207-3.235,0.534-4.072-1.189c-0.896-1.849,0.396-3.148,1.578-4.369c0.389-0.401,0.912-0.639,1.877-1.41
		c-3.417,0.52-6.438,1.103-8.541-1.747c-1.643-1.927-3.9-1.332-5.922-1.34c-16.177-0.058-32.355-0.015-48.533-0.05
		C31.616,400.233,29.282,400.594,27.382,398.934z"/>
	<path fill-rule="evenodd" clip-rule="evenodd" fill="#3795CF" d="M199.38,192.016c-25.464-0.034-50.928-0.067-76.392-0.101
		c5.083-5.939,10.166-11.878,15.249-17.818c1.822-1.367,3.957-1.263,6.063-1.289c11.938-0.146,23.881,0.282,35.817-0.243
		c1.155-0.051,2.24,0.1,3.21,0.773C188.679,179.564,194.03,185.79,199.38,192.016z"/>
	<path fill-rule="evenodd" clip-rule="evenodd" fill="#3274AB" d="M27.382,398.934c19.67-0.002,39.339,0.033,59.008-0.045
		c2.67-0.011,4.136,0.426,2.851,3.435c1.387,3.033,1.912,5.812-1.653,7.896c-1.079,0.631-0.099,1.188,0.497,1.817
		c2.402,2.542,2.153,3.207-1.447,4.52c-3.128-1.527-5.689-0.648-7.911,1.938c0.572,1.265,2.869,0.458,2.975,2.257
		c0.093,1.571-1.035,2.548-2.012,3.551c-1.059,1.086-1.837,1.646,0.155,3.033c2.528,1.761,0.081,3.349-1.335,3.971
		c-2.993,1.313-6.194,1.707-9.203-0.286c-3.417-4.194,0.204-8.3,0.46-12.381c0.227-3.628-0.851-4.144-3.747-4.135
		c-9.161,0.028-18.322,0.041-27.482-0.015c-2.194-0.012-4.12,0.791-6.126,1.408C29.938,410.479,28.331,404.804,27.382,398.934z"/>
	<path fill-rule="evenodd" clip-rule="evenodd" fill="#3172A9" d="M32.413,415.896c0.497-2.379,2.4-2.521,4.245-2.527
		c10.414-0.037,20.827-0.051,31.241,0.002c2.906,0.016,5.387,0.585,3.026,4.363c-0.718,1.15-0.856,2.315-0.378,3.605
		c0.237,0.64,0.573,1.798,0.327,1.975c-3.146,2.264-0.856,5.235-1.138,7.846c0.194,1.403-0.923,2.29-1.609,3.618
		c1.771,0.7,3.471,0.246,5.075,0.493c2.997,0.463,3.569,1.552,1.727,3.76c-1.388,1.663-2.122,3.577-3.082,5.446
		c-1.924,3.747-5.771,5.424-9.321,7.319c-3.629-1.947-4.959-5.66-6.189-9.082c-1.542-4.291-4.028-5.964-8.447-5.378
		c-1.775,0.236-3.62,0.244-5.43-0.003C38.085,430.668,34.805,423.491,32.413,415.896z"/>
	<path fill-rule="evenodd" clip-rule="evenodd" fill="#327AB1" d="M98.574,376.878c-2.309,0.733-4.669,0.878-7.088,0.873
		c-20.638-0.042-41.275,0.062-61.912-0.105c-3.567-0.029-5.417,0.726-4.873,4.575c-1.347-6.26-0.967-12.588-0.729-18.91
		c1.228-1.155,2.776-1.326,4.338-1.323c15.078,0.025,30.156-0.28,45.226,0.153c2.553,0.002,4.52,1.409,6.518,2.738
		c4.94,3.149,10.063,5.993,15.205,8.807C96.609,374.425,98.592,374.658,98.574,376.878z"/>
	<path fill-rule="evenodd" clip-rule="evenodd" fill="#3797D2" d="M183.328,173.338c-15.004,1.792-30.061,0.45-45.09,0.759
		c4.938-7.099,9.638-14.343,13.618-22.033c6.236-2.05,12.465-2.12,18.687,0.06C173.934,159.72,178.932,166.347,183.328,173.338z"/>
	<path fill-rule="evenodd" clip-rule="evenodd" fill="#337CB4" d="M74.83,363.304c-16.953,0.003-33.905,0.005-50.858,0.007
		c-0.237-5.401-0.112-10.783,0.901-16.114c1.206-1.178,2.754-1.295,4.295-1.295c7.399-0.004,14.8-0.218,22.188,0.114
		c1.912,0.026,3.524,0.791,4.991,1.993c5.236,4.293,10.621,8.384,16.307,12.075C73.769,360.807,75.233,361.476,74.83,363.304z"/>
	<path fill-rule="evenodd" clip-rule="evenodd" fill="#2A8B45" d="M300.412,397.694c-1.17,6.748-3.226,13.227-5.938,19.507
		c-0.612,2.359-1.826,4.446-2.965,6.567c-3.05,7.335-7.297,13.978-11.838,20.451c-1.926,2.575-4.012,5.069-5.575,7.861
		c-2.51,4.484-6.937,5.847-11.22,7.532c-0.543,0.213-1.097-0.053-1.574-0.383c-0.157-2.958,1.906-4.88,3.373-7.042
		c8.809-12.988,15.176-26.961,17.382-42.635c-0.012-0.426,0.043-0.843,0.151-1.255c0.41-1.005,1.15-1.769,1.869-2.549
		c5.326-4.932,9.556-10.708,13.129-16.997c0.55-0.968,1.18-2.153,2.5-1.935c1.676,0.276,1.508,1.771,1.559,3.036
		C301.055,392.479,301.025,395.119,300.412,397.694z"/>
	<path fill-rule="evenodd" clip-rule="evenodd" fill="#EBBB19" d="M284.422,406.912c-0.55,0.552-1.1,1.104-1.65,1.657
		c-1.029-0.783-1.193-1.926-1.036-3.049c0.787-5.608,0.086-11.267,0.615-16.875c1.077-8.146-1.165-15.933-2.625-23.804
		c-0.2-0.894-0.046-1.748,0.291-2.579c1.683-3.187,3.784-6.156,5.05-9.568c1.232-2.513,2.709-4.913,3.493-7.634
		c1.196-2.702,2.188-5.468,2.683-8.394c0.939-3.934,1.929-7.853,2.006-11.93c0.039-2.657-0.067-5.313,0.055-7.968
		c0.133-1.474-0.145-3.109,1.55-3.97c3.199,8.423,6.003,16.954,7.143,25.944c-1.074,5.57-3.989,10.476-5.724,15.813
		c-0.671,2.066-1.237,4.006-0.417,6.15c0.688,1.795,0.413,3.592-0.256,5.366c-2.384,6.321-4.817,12.626-6.858,19.076
		c-3.778,4.356-2.253,9.855-3.094,14.824C285.256,402.287,285.442,404.699,284.422,406.912z"/>
	<path fill-rule="evenodd" clip-rule="evenodd" fill="#368ABF" d="M29.196,323.489c2.898-10.324,7.072-20.14,11.827-29.726
		c5.023-2.016,10.066-1.961,15.125-0.145c1.07,1.623,0.343,3.251,0.018,4.878c-0.738,2.036-1.364,4.11-1.804,6.237
		c-0.402,1.224-0.566,2.507-0.878,3.754c-0.739,2.348-0.27,4.766-0.41,7.148c0.002,1.106,0.025,2.213-0.011,3.319
		c0.007,0.671,0.055,1.34,0.063,2.011c-0.267,1.705,1.236,3.642-0.656,5.137c-6.933-1.019-13.887-0.619-20.842-0.311
		C30.246,325.629,29.688,324.593,29.196,323.489z"/>
	<path fill-rule="evenodd" clip-rule="evenodd" fill="#9A201E" d="M294.854,312.8c-0.133,1.286-0.265,2.571-0.398,3.857
		c-2.712,1.999-5.097,0.708-7.326-0.876c-3.094-2.199-6.284-4.408-8.777-7.227c-4.64-5.241-11.77-6.346-16.838-10.709
		c-3.06-2.634-6.783-4.589-8.901-8.252c0.244-3.245,1.671-5.775,4.506-7.457c4.662,0.71,8.927,2.308,12.632,5.35
		c5.176,4.249,9.646,9.65,16.926,10.578c0.836,0.106,1.434,0.859,1.815,1.662C291.46,303.671,293.752,307.945,294.854,312.8z"/>
	<path fill-rule="evenodd" clip-rule="evenodd" fill="#96201D" d="M288.493,299.725c-8.191-1.17-13.979-6.348-19.72-11.688
		c-3.278-3.048-7.692-3.846-11.734-5.349c0.401-4.222,3.051-6.908,6.28-9.2c1.395-1.278,2.823-2.523,4.176-3.845
		c1.146-1.12,2.211-1.38,3.321-0.004c6.283,8.681,12.057,17.673,16.648,27.382C287.875,297.89,288.153,298.822,288.493,299.725z"/>
	<path fill-rule="evenodd" clip-rule="evenodd" fill="#378CC3" d="M56.221,294.768c-3.35-2.181-7.062-0.534-10.581-0.975
		c-1.516-0.191-3.077-0.03-4.617-0.029c3.226-7.443,6.946-14.616,11.664-21.242c3.586,1.708,7.404,0.502,11.094,0.893
		c3.389,0.359,6.9-0.877,10.185,0.789c0.536,1.238-0.604,1.613-1.165,2.29c-1.361,1.264-2.835,2.392-4.308,3.52
		c-1.24,1.129-1.989,2.669-3.189,3.829c-0.882,0.888-1.823,1.72-2.615,2.696c-0.656,0.828-1.185,1.744-1.771,2.619
		c-0.909,1.337-1.524,2.854-2.5,4.152C57.823,294.003,57.359,294.898,56.221,294.768z"/>
	<path fill-rule="evenodd" clip-rule="evenodd" fill="#306BA0" d="M224.9,493.706c-14.622,6.804-29.789,11.693-45.928,13.273
		c-24.01,2.35-47.25-0.564-69.547-10.027c-1.657-0.703-3.235-1.593-4.85-2.396c1.319-2.807,4.045-1.285,6.053-1.979
		c0.822,0.013,1.602,0.234,2.37,0.496c0.367,0.128,0.715,0.304,1.047,0.504c0.864,0.751,1.918,1.105,3.001,1.396
		c0.706,0.225,1.407,0.462,2.11,0.694c0.356,0.114,0.697,0.264,1.028,0.434c2.08,1.35,4.54,1.522,6.839,2.2
		c0.373,0.116,0.727,0.271,1.072,0.451c2.69,1.44,5.751,1.396,8.618,2.156c0.425,0.128,0.819,0.309,1.202,0.529
		c5.698,1.172,11.432,1.805,17.255,1.372c6.916-0.07,13.825,0.197,20.732,0.096c4.925,0.081,9.803-0.254,14.533-1.778
		c0.61-0.284,1.255-0.456,1.916-0.556c2.861-0.309,5.732-0.594,8.35-1.953c0.358-0.18,0.735-0.313,1.118-0.426
		c2.086-0.398,4.099-1.006,5.9-2.183c1.036-0.478,2.132-0.779,3.224-1.092c1.3-0.234,2.514-0.686,3.602-1.462
		c0.352-0.207,0.717-0.374,1.097-0.521c1.726-0.564,3.406-1.343,5.216-1.512C222.652,491.256,224.618,491.071,224.9,493.706z"/>
	<path fill-rule="evenodd" clip-rule="evenodd" fill="#306CA2" d="M224.9,493.706c-1.435-2.088-3.315-1.567-5.276-0.978
		c-1.597,0.482-3.244,0.798-4.868,1.188c-0.077-0.18-0.154-0.359-0.232-0.539c0.097-0.388,0.298-0.709,0.601-0.97
		c1.428-1.001,3.188-1.269,4.686-2.119c0.321-0.186,0.657-0.344,0.993-0.499c1.543-0.585,2.885-1.52,4.227-2.458
		c2.859-1.411,5.615-2.982,8.062-5.053c9.297-5.58,16.884-13.119,24.127-21.052c1.182-1.141,2.378-2.252,4.237-1.695
		c6.372-2.308,11.519-6.035,14.815-12.166c0.677-1.26,1.272-2.853,2.803-3.557c0.757-0.456,1.477-0.451,2.148,0.172
		c-8.937,13.75-19.776,25.74-32.942,35.569C240.948,485.024,233.304,489.995,224.9,493.706z"/>
	<path fill-rule="evenodd" clip-rule="evenodd" fill="#EAB81A" d="M288.556,384.511c0.222-6.632,3.948-12.158,5.835-18.266
		c0.689-2.232,1.557-4.181-0.155-6.287c-1.235-1.52-0.09-3.056,0.449-4.357c2.34-5.658,3.913-11.658,7.312-16.856
		c2.425,11.774,2.716,23.65,1.69,35.589c-3.49,3.082-7.064,6.063-10.975,8.601C291.466,383.742,290.342,385.054,288.556,384.511z"/>
	<path fill-rule="evenodd" clip-rule="evenodd" fill="#347EB6" d="M29.196,323.489c0.509,0.551,1.019,1.101,1.528,1.651
		c1.177,0.758,2.464,1.341,3.424,2.43c5.874,6.659,13.134,11.896,19.034,18.535c0.016,0.417-0.119,0.779-0.404,1.085
		c-9.301,0.001-18.603,0.004-27.904,0.006C25.257,339.102,26.826,331.222,29.196,323.489z"/>
	<path fill-rule="evenodd" clip-rule="evenodd" fill="#E8B21A" d="M288.556,384.511c5.454-2.782,9.337-7.9,15.131-10.178
		c-0.35,1.092-1.091,2.123-0.528,3.359c0.193,1.79,0.901,3.675-0.926,5.098c-0.072,0.223-0.066,0.443,0.017,0.661
		c0.472,1.466,0.436,2.906-0.209,4.317c-0.345,0.519-0.635,1.115-1.422,1.01c-1.531-3.082-2.01-0.214-2.46,0.559
		c-3.284,5.626-7.074,10.865-11.561,15.591c-0.673,0.71-1.448,1.324-2.176,1.983c-0.827-6.274,0.957-12.445,0.746-18.693
		C285.088,385.852,286.979,385.337,288.556,384.511z"/>
	<path fill-rule="evenodd" clip-rule="evenodd" fill="#3999D3" d="M170.543,152.124c-6.229-0.02-12.458-0.04-18.687-0.06
		c4.309-9.447,7.474-19.232,8.731-29.581c1.026-0.509-0.729-2.684,1.485-2.481C163.068,131.191,166.204,141.816,170.543,152.124z"/>
	<path fill-rule="evenodd" clip-rule="evenodd" fill="#306DA3" d="M75.581,476.212c-8.465-6.267-15.709-13.736-21.922-22.226
		c2.417-3.662,5.881-1.513,8.933-1.616c2.324,0.35,3.508,2.159,4.695,3.855c3.535,5.049,8.125,9.164,12.096,13.819
		c0.282,0.251,0.518,0.547,0.711,0.872c0.201,1.065-0.633,1.603-1.171,2.294c-0.326,0.395-0.682,0.763-1.043,1.123
		c-0.592,0.593-1.066,1.311-1.805,1.753C75.91,476.13,75.745,476.171,75.581,476.212z"/>
	<path fill-rule="evenodd" clip-rule="evenodd" fill="#3692CA" d="M104.542,210.653c1.59,1.313,3.371,1.729,5.463,1.726
		c34.165-0.057,68.331-0.052,102.497-0.012c2.052,0.002,3.927-0.161,5.449-1.682c1.155,1.172,2.935,1.666,3.628,3.339
		c-40.07,0.007-80.142,0.014-120.212,0.021C102.426,212.914,103.484,211.784,104.542,210.653z"/>
	<path fill-rule="evenodd" clip-rule="evenodd" fill="#316FA6" d="M63.797,453.212c-3.369,0.397-6.863-0.843-10.139,0.774
		c-4.421-5.088-8.299-10.542-11.201-16.652c3.654-2.217,7.632-0.779,11.457-0.935c1.624-0.065,1.519,1.818,2.006,2.886
		c1.962,4.303,3.584,8.785,7.03,12.229C63.715,451.84,64.167,452.32,63.797,453.212z"/>
	<path fill-rule="evenodd" clip-rule="evenodd" fill="#316CA1" d="M111.293,493.075c-1.999,1.589-4.681,0.07-6.718,1.48
		c-10.539-4.732-20.344-10.624-28.994-18.344l0.129-0.122c0.989-0.64,2.046-1.073,3.244-1.078c2.483-0.029,4.846,0.682,7.243,1.184
		c5.582,3.831,11.056,7.838,17.033,11.07c1.748,1.159,3.7,1.948,5.498,3.008C109.832,490.924,111.527,491.154,111.293,493.075z"/>
	<path fill-rule="evenodd" clip-rule="evenodd" fill="#3673A7" d="M281.223,443.98c-0.716-0.057-1.432-0.114-2.148-0.172
		c4.066-6.755,8.133-13.508,12.199-20.263c0.321-0.31,0.616-0.303,0.883,0.069C289.406,430.884,285.75,437.666,281.223,443.98z"/>
	<path fill-rule="evenodd" clip-rule="evenodd" fill="#3E7DB1" d="M300.618,388.778c0.297-0.279,0.595-0.558,0.892-0.836
		c0.681-0.101,1.03,0.096,0.758,0.848c-0.32,3.029-0.461,6.098-1.856,8.904C300.481,394.722,300.549,391.75,300.618,388.778z"/>
	<path fill-rule="evenodd" clip-rule="evenodd" fill="#3075A3" d="M292.156,423.615c-0.294-0.023-0.588-0.046-0.883-0.069
		c1.067-2.114,2.134-4.229,3.201-6.344C294.557,419.648,293.335,421.623,292.156,423.615z"/>
	<path fill-rule="evenodd" clip-rule="evenodd" fill="#95C9E9" d="M162.072,120.002c-0.495,0.827-0.99,1.654-1.486,2.481
		c-0.174-1.884-0.32-3.763,1.038-5.442C162.602,117.97,162.136,119.017,162.072,120.002z"/>
	<path fill-rule="evenodd" clip-rule="evenodd" fill="#6F96A9" d="M302.269,388.79c-0.253-0.282-0.506-0.564-0.759-0.847
		c0.247-1.497,0.494-2.995,0.74-4.491C303.765,385.226,302.941,387.008,302.269,388.79z"/>
	<path fill-rule="evenodd" clip-rule="evenodd" fill="#93B1BB" d="M302.232,382.79c0.309-1.699,0.617-3.398,0.926-5.098
		C303.987,379.598,304.757,381.494,302.232,382.79z"/>
	<path fill-rule="evenodd" clip-rule="evenodd" fill="#028ECF" d="M536.882,355.552c4.396-2.092,7.2-4.823,7.87-9.256
		c1.353-8.933-4.34-15.658-14.172-15.976c-10.156-0.327-20.331-0.049-30.497-0.12c-1.894-0.014-2.776,0.369-2.767,2.541
		c0.079,16.238,0.074,32.477,0.006,48.714c-0.01,2.191,0.672,2.964,2.905,2.939c8.896-0.101,17.792,0.007,26.687-0.081
		c2.385-0.024,4.773-0.406,7.145-0.735c7.547-1.049,12.395-5.485,13.261-12.062C548.362,363.604,545.791,359.442,536.882,355.552z
		 M514.324,342.033c-0.001-0.109,0.144-0.227,0.234-0.328c1.83-2.008,12.898,0.043,13.905,2.576c1.362,3.431-0.476,6.672-4.176,7.14
		c-1.525,0.193-3.096,0.032-5.435,0.032c-0.941-0.236-3.749,1.121-4.256-0.628C513.806,348.097,514.338,344.983,514.324,342.033z
		 M526.745,372.282c-2.024,0.452-4.176,0.338-6.168,0.469c-2.118-0.532-5.328,1.003-5.961-0.838
		c-0.946-2.759-0.313-6.074-0.27-9.152c0.012-0.876,0.816-1.09,1.534-1.058c3.629,0.16,7.279-0.468,10.895,0.502
		c2.66,0.713,4.241,2.305,4.224,5.005C530.982,369.909,529.29,371.716,526.745,372.282z"/>
	<path fill-rule="evenodd" clip-rule="evenodd" fill="#028ECF" d="M769.309,371.83c-0.033-4.236,0.087-8.478-0.029-12.711
		c-0.222-7.969-3.626-12.695-10.854-13.983c-7.097-1.264-14.34-1.417-21.416,0.405c-3.979,1.024-7.071,3.342-8.66,7.372
		c-0.877,2.223-1.188,3.701,2.092,3.702c2.946,0.001,5.893,0.518,8.838,0.81c1.303,0.13,2.369,0.103,3.186-1.338
		c1.622-2.864,4.488-3.011,7.404-2.975c2.399,0.029,4.125,0.815,4.587,3.379c0.54,2.984-2.158,2.664-3.573,3.046
		c-5.426,1.465-10.999,2.385-16.411,3.889c-6.078,1.688-8.718,5.624-8.314,11.534c0.33,4.831,4.137,8.563,9.66,9.66
		c7.032,1.397,13.394,0.009,19.391-4.659c1.176,1.96,0.902,4.605,4.009,4.44c3.741-0.201,7.502-0.048,11.771-0.048
		C768.848,380.028,769.34,375.902,769.309,371.83z M745.939,376.884c-2.215,0.191-4.065-0.634-4.741-3.013
		c-0.728-2.563,0.896-4.03,2.997-4.799c2.881-1.053,5.896-1.736,8.804-2.72c2.009-0.678,1.699,0.712,1.755,1.766
		C755.016,373.022,751.191,376.877,745.939,376.884z"/>
	<path fill-rule="evenodd" clip-rule="evenodd" fill="#FFFFFF" d="M573.782,338.622c3.136,4.337,7.144,7.169,11.061,10.152
		c10.625,8.095,11.199,20.537,1.466,28.854c-6.093,5.207-13.687,5.706-19.834,1.306c-7.263-5.2-10.318-13.831-7.396-21.113
		c0.998-2.488,2.228-4.909,4.107-6.855C566.902,347.12,570.774,343.42,573.782,338.622z"/>
	<path fill-rule="evenodd" clip-rule="evenodd" fill="#378BC1" d="M263.318,273.488c-2.094,3.067-4.187,6.134-6.28,9.2
		c-1.67,2.099-3.115,4.334-4.138,6.825c-0.232,3.528-3.091,5.815-4.204,8.929c-1.478,2.111-2.522,4.477-3.886,6.658
		c-0.578,0.635-1.267,1.075-2.133,1.2c-3.101-0.312-5.023-2.718-7.469-4.199c-6.164-6.623-13.717-5.602-21.676-3.992
		c1.547,1.098,4.064-0.028,4.463,1.887c0.366,1.756-1.627,2.32-3.022,2.948c-4.211-0.495-7.6,0.601-10.371,4.161
		c-1.53,1.967-4.097,2.971-6.88,2.225c-2.433-1.211-4.996-1.723-7.707-1.604c-8.489,0.371-17.021-0.774-25.475,0.71
		c-0.453,0.126-0.911,0.125-1.365,0.01c-1.385-1.065-1.135-2.779-1.664-4.185c-0.466-1.745-1.018-3.467-1.631-5.167
		c-0.546-2.016-1.421-3.896-2.416-5.724c-0.486-0.976-1.08-1.887-1.698-2.784c-0.831-1.366-1.691-2.713-2.646-3.998
		c-0.91-1.091-1.703-2.269-2.55-3.406c-1.02-1.249-2.194-2.346-3.377-3.435c-1.207-1.147-2.724-1.917-3.858-3.155
		c-0.505-0.597-0.907-1.234-0.762-2.069c0.808-1.368,2.166-1.114,3.406-1.113C185.093,273.431,224.206,273.461,263.318,273.488z"/>
	<path fill-rule="evenodd" clip-rule="evenodd" fill="#B8D6E9" d="M142.575,274.525c0.332,0.454,0.663,0.907,0.994,1.361
		c-0.995,2.939-3.587,2.218-5.636,2.241c-11.119,0.125-22.239,0.058-33.359,0.057c-9.008-0.001-18.018,0.074-27.025-0.056
		c-1.942-0.028-4.333,0.521-5.264-2.173c0.561-0.584,1.121-1.167,1.681-1.752c2.556-1.382,5.111-2.764,7.667-4.146
		c17.52-0.908,35.042-0.832,52.563-0.05C137.34,270.861,139.648,273.266,142.575,274.525z"/>
	<path fill-rule="evenodd" clip-rule="evenodd" fill="#BFDAEC" d="M134.195,270.007c-0.821,1.06-2.002,0.846-3.102,0.847
		c-15.445,0.008-30.891,0.009-46.335-0.001c-1.098,0-2.279,0.231-3.125-0.797C99.145,261.483,116.666,261.407,134.195,270.007z"/>
	<path fill-rule="evenodd" clip-rule="evenodd" fill="#3478AD" d="M101.116,409.108c1.643-0.728,3.131-1.915,5.089-1.696
		c3.016,0.817,6.582-0.292,9.019,2.563c2.554,2.303,2.838,4.656,0.158,7.088c-0.416,0.378-1.033,0.954-0.89,1.373
		c1.173,3.435,0.05,5.937-2.872,7.858c-0.853,0.561-0.028,0.89,0.328,1.21c1.107,0.996,1.079,2.227,0.728,3.503
		c-0.591,2.149-2.439,2.976-4.185,3.899c1.358,1.521,1.431,2.943-0.132,4.44c-1.844,1.766-4,3.254-1.752,6.509
		c0.997,1.443-1.008,2.99-2.526,3.838c-1.683,0.94-3.042,1.924-2.785,4.221c0.245,2.188-1.652,3.104-3.036,4.244
		c-1.521,1.254-2.8,2.518-1.163,4.561c-2.041,4.093-6.476,4.661-9.936,6.604c-2.088,1.173-4.152,3.18-6.994,1.961
		c-0.099-0.115-0.206-0.223-0.321-0.321c-4.956-3.305,0.445-4.53,1.27-6.674c0.207-0.284,0.119-0.533-0.225-0.616
		c-1.444-0.35-3.515,0.354-4.167-1.299c-0.643-1.629,1.58-2.444,2.09-3.828c0.694-1.88,5.016-2.445,2.01-5.779
		c-0.608-0.675,0.713-1.71,1.614-2.081c1.8-0.742,2.871-2.192,3.922-3.692c3.327-2.928,5.23-7.433,10.063-8.924
		c-1.514-0.573-3.898-0.471-3.712-2.195c0.389-3.592,3.654-5.013,6.355-6.843c-0.835-0.804-2.928-0.017-3.054-1.789
		c-0.113-1.599,1.204-2.446,2.496-3.084c1.942-0.958,4.324-1.608,1.293-4.217c-1.243-1.069-0.24-2.292,0.588-3.312
		c1.013-1.246,2.747-1.366,4.062-2.68c-1.745-0.872-4.249-0.083-5.061-2.319C98.856,410.155,100.329,409.811,101.116,409.108z"/>
	<path fill-rule="evenodd" clip-rule="evenodd" fill="#3784B8" d="M98.574,376.878c-6.041-3.979-12.842-6.67-18.659-11.026
		c1.157-1.818,3.052-1.915,4.875-1.932c12.69-0.11,25.38-0.089,38.07-0.012c2.472,0.015,5.029,0.21,4.713,3.814
		c-0.178,2.035,2.342,2.263,2.647,4.464c0.513,3.698,1.786,7.143-2.752,9.227c1.907,1.866,3.695,1.227,5.302,1.413
		c2.408,0.28,3.021,1.288,1.426,3.271c-0.968,1.204-2.16,2.24-2.745,3.729c-0.186,0.404-0.467,0.723-0.836,0.968
		c-5.948-0.471-10.976-3.282-15.932-6.277c-0.565-0.284-1.13-0.567-1.695-0.853c-1.084-0.656-2.436-0.775-3.391-1.691
		C105.885,380.355,102.535,377.955,98.574,376.878z"/>
	<path fill-rule="evenodd" clip-rule="evenodd" fill="#3376AC" d="M101.116,409.108c-1.821,2.31-1.38,3.374,1.677,3.454
		c1.189,0.032,3.267-1.092,3.49,0.923c0.196,1.771-1.608,2.273-3.281,2.552c-1.439,0.24-2.757,1.323-2.934,2.704
		c-0.201,1.562,1.524,1.213,2.509,1.518c0.623,0.191,1.162,0.822,0.868,1.188c-1.011,1.26-2.156,3.217-3.379,3.316
		c-1.987,0.161-2.524,1.307-3.771,2.517c0.748,0.245,1.098,0.388,1.462,0.475c1.161,0.279,3.063-0.691,3.396,0.639
		c0.499,1.992-1.839,1.488-2.849,2.218c-1.984,1.435-5.067,2.969-4.718,5.308c0.338,2.265,3.485-0.451,5.418,0.799
		c-1.747,1.684-2.984,3.706-5.536,4.259c-1.647,0.357-2.455,1.75-3.125,3.202c-0.729,1.58-1.655,2.979-3.646,3.098
		c-1.057-0.694-2.061-1.469-3.277-1.903c-0.925-0.329-1.591-1.32-1.004-1.957c2.683-2.914,1.234-7.106,3.664-10.367
		c1.548-2.077,1.561-5.613,2.64-8.417c0.466-1.21-0.597-2.415-1.652-3.184c-3.506-2.555-3.521-2.534-0.372-5.554
		c1.162-0.144,2.292-0.398,2.21-1.9c-0.051-0.942-0.665-1.173-4.462-1.984c0.736-1.79,2.423-2.613,3.655-3.762
		c1.626-1.517,3.541-2.721-0.375-3.554c-0.841-0.18-1.069-0.962-0.722-1.633c0.449-0.869,1.421-0.691,2.239-0.737
		c2.444,0.326,4.897,1.125,7.291-0.266c0.778-0.452,1.745-0.627,2.192,0.313c0.505,1.061-0.178,1.886-1.147,2.328
		c-0.736,0.337-1.783,0.093-2.229,0.951c-0.54,1.039-2.155,1.724-1.375,3.221c0.729,1.398,1.885,0.534,2.952,0.387
		C98.303,409.067,99.718,409.146,101.116,409.108z"/>
	<path fill-rule="evenodd" clip-rule="evenodd" fill="#3379AF" d="M114.683,384.517c5.667,1.176,10.488,4.654,16.12,5.926
		c1.142-0.574,2.035-0.021,2.907,0.639c1.523,3.831-1.808,4.485-3.897,5.96c-1.253,0.404-2.468,0.17-3.62-0.208
		c3.904,2.269,2.023,6.351-3.037,6.541c-1.798,0.068-3.565-0.773-5.461-0.156c0.688,1.301,3.837,0.66,2.77,2.746
		c-1.14,2.229-2.042,5.433-5.778,4.841c-0.866-1.935-2.601-1.696-4.241-1.696c-1.64,0-3.375,0.237-4.241-1.696
		c0.283-0.849,0.565-1.696,0.848-2.545c0.665-0.884,1.69-0.909,2.813-1.143c-2.105-0.761-4.504,0.383-6.205-1.401
		c0.394-0.99,1.296-1.401,2.105-1.966c1.122-0.781,1.608-1.56-0.168-2.346c-3.103-1.372-2.055-3.517-0.24-4.826
		c2.81-2.028,4.239-5.68,7.988-6.61C113.927,386.432,114.244,385.23,114.683,384.517z"/>
	<path fill-rule="evenodd" clip-rule="evenodd" fill="#3478AD" d="M103.661,402.323c2.211,0.002,4.424-0.04,6.633,0.023
		c1.015,0.028,2.516-0.305,2.39,1.41c-0.098,1.338-1.405,1.044-2.315,1.093c-1.102,0.058-2.21,0.017-3.316,0.018
		c-1.094,0-2.192,0.055-3.281-0.02c-0.862-0.06-2.203,0.379-2.227-1.041C101.526,402.646,102.663,402.418,103.661,402.323z"/>
	<path fill-rule="evenodd" clip-rule="evenodd" fill="#3379AF" d="M109.598,381.973c1.347,0.131,2.527,0.594,3.391,1.691
		C111.537,383.743,110.242,383.511,109.598,381.973z"/>
	<path fill-rule="evenodd" clip-rule="evenodd" fill="#3375AB" d="M86.697,415.894c0.157,1.604-1.462,2.292-1.896,3.6
		c5.454,1.443,6.464,4.287,3.299,9.231c-0.218,0.34-0.53,0.621-0.798,0.929c3.82,3.147-1.183,3.965-1.624,5.996
		c-0.204,0.94-1.687,1.677-0.036,2.729c1.09,0.693,0.819,1.435-0.135,2.319c-1.615,1.496-5.095,3.404,0.452,4.347
		c0.87,0.147,0.693,1.403,0.739,2.23c-0.071,3.412-3.129,3.827-5.37,5.004c0.688,1.699,2.576,0.235,3.053,1.308
		c-1.293,1.523-2.546,2.963-3.755,4.438c-1.127,1.376-2.208,2.789-3.461,4.378c2.238,0.105,4.249,0.2,6.197,0.293
		c0.226,3.536-6.98,3.53-3.515,8.267c-4.493-2.466-6.979-6.987-10.537-10.414c-2.175-2.095-3.698-4.867-5.513-7.336
		c-0.282-0.565-0.564-1.131-0.847-1.697c1.896-2.014,3.463-4.439,6.409-5.144c0.862-0.205,1.585-0.502,1.558-1.604
		c-0.084-3.398,2.223-5.488,4.717-7.905c-3.274-1.199-6.387-0.194-9.487-0.816c0.186-2.472,2.628-3.156,3.588-4.886
		c7.953,0,7.953,0,10.352-2.667c-0.197-1.015-1.054-0.618-1.651-0.717c-0.793-0.131-1.841,0.253-2.246-0.69
		c-0.439-1.025,0.632-1.375,1.191-1.956c1.315-1.364,2.581-2.777,3.832-4.134c-1.637-1.809-4.6,0.363-4.978-1.786
		c-0.344-1.95,2.694-1.845,3.863-3.278C82.093,413.485,84.48,413.93,86.697,415.894z"/>
	<path fill-rule="evenodd" clip-rule="evenodd" fill="#3685B9" d="M130.8,389.601c-0.782-3.103,3.172-3.218,3.573-5.862
		c-2.362,0.238-4.692,0.503-6.996-0.067c-0.686-0.171-1.471-0.154-1.819-0.862c-0.506-1.028,0.424-1.539,0.996-2.058
		c0.827-0.751,2.004-1.198,2.634-2.064c0.841-1.157,2.824-2.652-0.293-3.734c-1.255-0.437-1.746-1.324-0.338-2.481
		c1.754-1.441,1-2.353-0.873-1.996c-2.275,0.434-2.344-1.048-1.757-2.097c2.359-4.212-0.938-3.335-2.943-3.346
		c-12.138-0.056-24.277,0.006-36.416-0.057c-2.282-0.012-4.482,0.233-6.654,0.876c-1.86-0.52-3.054-2.368-5.084-2.548
		c-7.351-5.371-14.702-10.742-22.053-16.113c0-0.283,0-0.565,0-0.847c2.969-3.309,6.485-1.902,9.267-0.297
		c3.266,1.885,6.514,2.371,10.084,2.365c22.148-0.029,44.298-0.017,66.447-0.013c1.692,0.001,3.387-0.047,5.074,0.133
		c3.222,0.343,5.315,1.791,5.213,5.362c-0.229,1.226-0.164,2.683-2.023,2.762c-0.035,0.38,0.086,0.437,0.44,0.307
		c1.882-0.693,4.411-1.454,5.296,0.51c1.032,2.289-1.761,2.933-3.319,3.917c-2.17,0.71-4.472,0.261-6.711,0.763
		c1.021,0.755,3.115,0.827,2.553,2.656c-0.409,1.329-2.096,1.265-3.335,1.218c-2.664-0.099-4.947,0.805-7.502,2.632
		c2.689,0.743,5.016,1.682,2.822,4.876c-0.885,1.289,0.861,1.842,1.21,2.784c0.775,2.091,3.508,4.107,1.531,6.428
		C137.374,385.621,135.912,390.128,130.8,389.601z"/>
	<path fill-rule="evenodd" clip-rule="evenodd" fill="#2D9648" d="M261.456,459.531c-1.148,0.69-2.296,1.381-3.443,2.073
		c-8.716,5.732-18.604,8.38-28.561,10.853c-0.649,0.095-1.272,0.023-1.851-0.304c-1.056-2.23,0.573-3.713,1.581-5.293
		c4.614-7.232,10.518-13.38,16.586-19.371c2.123-2.096,3.982-4.338,5.222-7.075c0.76-1.678,1.729-3.23,3.305-4.288
		c4.496-3.017,6.514-7.916,9.308-12.228c5.463-5.256,12.013-9.229,17.346-14.647c0.478-0.485,1.218-0.708,1.884-0.114
		c0.601,4.381-0.881,8.536-2.139,12.49c-3.649,11.47-8.549,22.414-15.891,32.118C263.468,455.509,262.56,457.595,261.456,459.531z"
		/>
	<path fill-rule="evenodd" clip-rule="evenodd" fill="#F1CD16" d="M282.832,409.137c-6.02,5.435-12.376,10.45-18.938,15.21
		c-1.608,2.518-3.619,4.286-6.892,3.718c-1.811-1.366-1.186-3.008-0.399-4.554c2.131-4.183,1.409-7.633-1.784-11.16
		c-4.952-5.471-4.877-7.004-1.242-13.008c0.571-0.942,1.438-1.33,2.344-1.688c8.4-3.33,16.998-6.162,25.186-10.025
		c0.764-0.36,1.65-0.445,2.363,0.275c-0.02,6.896,0.247,13.801-0.697,20.665C282.796,408.758,282.815,408.947,282.832,409.137z"/>
	<path fill-rule="evenodd" clip-rule="evenodd" fill="#F2D016" d="M283.469,387.904c-9.233,3.664-18.487,7.277-27.688,11.02
		c-3.061,1.244-4.29,8.004-2.067,10.535c1.197,1.364,2.405,2.72,3.614,4.074c3.051,3.416,1.858,7.051,0.274,10.505
		c-0.623,1.359-1.361,2.41-0.402,3.812c0.263,0.976-0.235,1.743-0.961,2.144c-4.282,2.356-8.356,5.209-13.371,5.909
		c-1.835-0.646-1.586-1.783-0.495-2.835c2.286-2.204,1.802-3.84-0.435-5.896c-5.08-4.668-5.223-9.345-0.811-14.95
		c0.795-1.011,1.709-1.968,1.037-3.362c-0.804-1.667-1.982-0.819-3.21-0.506c-3.413,0.874-2.698-1.651-2.745-3.515
		c1.291-3.268,4.817-4.056,7.008-6.33c3.24-2.059,6.059-4.677,9.144-6.941c1.925-1.776,4.205-3.127,6.032-5.022
		c2.499-2.564,5.282-4.858,7.386-7.8c4.837-4.093,8.676-9.082,12.577-14.018c0.44-0.432,0.926-0.758,1.586-0.64
		c3.2,4.452,2.613,9.845,3.355,14.827C283.724,381.779,285.518,384.898,283.469,387.904z"/>
	<path fill-rule="evenodd" clip-rule="evenodd" fill="#C42B1A" d="M279.941,364.087c-0.334,0.302-0.668,0.604-1.003,0.905
		c-1.769,1.468-3.712,1.047-5.637,0.471c-3.114-0.93-6.194-1.973-9.255-3.06c-2.468-0.877-4.88-1.329-7.419-0.278
		c-1.198,0.496-2.62,0.699-3.734,0.105c-4.388-2.337-9.534-2.488-13.863-4.954c-2.5-1.425-5.286-1.814-8.086-2.318
		c-4.779-0.862-9.976-0.938-13.275-5.476c-0.549-3.353,1.995-5.277,3.539-7.669c0.326-0.313,0.691-0.573,1.084-0.796
		c2.729-1.555,5.032-0.964,7.874,0.435c4.249,2.092,8.849,3.639,13.44,4.921c11.106,3.099,22.249,6.094,33.681,7.825
		c2.861,2.003,3.536,4.932,3.442,8.182C280.464,362.949,280.203,363.518,279.941,364.087z"/>
	<path fill-rule="evenodd" clip-rule="evenodd" fill="#9F201E" d="M247.903,298.01c1.392-2.993,2.932-5.899,4.999-8.496
		c3.705,2.991,7.82,5.61,10.98,9.094c2.344,2.585,5.609,1.155,7.94,3.293c4.434,4.065,9.336,7.616,13.893,11.554
		c2.573,2.225,5.239,3.733,8.741,3.202c-0.047,2.847-0.093,5.693-0.14,8.539c-0.906,3.353-1.734,3.797-4.419,1.955
		c-8.775-6.019-18.468-10.77-25.983-18.535c-3.733-3.857-9.677-3.934-13.289-7.988C249.799,299.703,248.551,299.159,247.903,298.01z
		"/>
	<path fill-rule="evenodd" clip-rule="evenodd" fill="#A3211E" d="M247.903,298.01c6.184,4.563,13.923,6.563,19.506,12.213
		c3.222,3.262,6.81,6.343,10.722,8.69c4.342,2.605,9.342,4.021,13.028,7.861c1.893,1.971,2.333-0.551,3.157-1.578
		c-0.272,4.044-0.704,8.059-2.261,11.857c-1.787,1.167-3.027-0.179-4.091-1.141c-10.072-9.11-22.988-14.362-32.606-24.085
		c-1.411-1.427-3.379-1.997-5.192-2.793c-2.311-1.016-4.739-1.928-6.026-4.377C245.394,302.442,246.648,300.226,247.903,298.01z"/>
	<path fill-rule="evenodd" clip-rule="evenodd" fill="#A7221E" d="M244.14,304.658c8.641,3.825,16.211,9.231,23.067,15.679
		c2.394,2.251,5.393,3.428,8.257,4.872c5.308,2.676,9.254,7.177,13.994,10.622c0.813,0.592,1.547,1.198,2.596,1.223
		c-0.222,3.024-1.266,5.79-2.667,8.441c-1.82,1.426-3.128,0.158-4.41-0.9c-3.335-2.753-6.668-5.509-9.989-8.279
		c-3.12-2.603-6.272-5.09-10.348-6.027c-0.878-0.54-1.511-1.331-2.15-2.115c-2.423-3.761-6-6.563-8.56-10.213
		c-3.245-4.23-7.949-6.9-11.529-10.774c-0.108-0.62-0.175-1.221,0.653-1.405C243.417,305.406,243.778,305.032,244.14,304.658z"/>
	<path fill-rule="evenodd" clip-rule="evenodd" fill="#AB231E" d="M264.805,329.384c8.638,1.924,13.592,9.214,20.276,13.979
		c1.359,0.97,2.369,2.415,4.307,2.132c-0.34,2.92-2.311,5.094-3.491,7.63c-1.88,1.183-2.806-0.498-3.945-1.372
		c-2.564-1.968-4.841-4.323-7.83-5.711c-0.53-0.318-0.972-0.733-1.343-1.226c-1.458-3.764-4.73-6.401-6.309-10.095
		C266.228,332.847,263.411,331.768,264.805,329.384z"/>
	<path fill-rule="evenodd" clip-rule="evenodd" fill="#AF241E" d="M274.137,345.497c3.724,0.106,5.378,3.477,8.092,5.176
		c1.24,0.777,1.921,2.403,3.667,2.452c-1.034,3.47-3.054,6.389-5.17,9.255c-1.065-2.518-2.131-5.035-3.197-7.553
		c-1.334-1.079-1.809-2.662-2.451-4.15C274.605,348.98,272.888,347.505,274.137,345.497z"/>
	<path fill-rule="evenodd" clip-rule="evenodd" fill="#3787BB" d="M147.765,354.827c0.645-4.407-1.882-5.137-5.539-5.126
		c-24.357,0.07-48.715,0.026-73.073,0.052c-2.732,0.002-4.969-0.486-7.282-2.435c-2.439-2.053-5.885-2.222-9.094-0.975
		c-7.745-6.658-15.405-13.405-22.054-21.203c6.363-1.7,12.853-0.474,19.273-0.848c1.361-0.079,1.875,1.074,2.75,1.705
		c0.153,0.117,0.307,0.235,0.463,0.351c1.074,1.63,1.389,3.556,2.088,5.333c0.52,1.62,1.019,3.248,1.703,4.813
		c0.342,0.723,0.712,1.43,1.099,2.133c0.635,1.17,1.408,2.236,2.276,3.247c1.57,2.039,3.828,2.263,6.12,2.268
		c27.686,0.049,55.371,0.039,83.057,0.015c2.005-0.002,3.922-0.422,5.803-1.053c1.685-0.319,3.953-0.737,4.448,1.14
		c1.052,3.993-3.724,3.811-5.194,6.293c0.594-0.76,1.313-0.952,2.087-0.927c1.123,0.037,2.497,0.017,2.851,1.269
		c0.415,1.465-0.744,2.591-1.966,2.786C154.333,354.184,151.156,355.498,147.765,354.827z"/>
	<path fill-rule="evenodd" clip-rule="evenodd" fill="#92C0DC" d="M157.99,292.849c1.434,1.722,2.399,3.649,2.581,5.917
		c0.064,0.815-0.364,1.293-1.061,1.629c-1.046,0.505-2.168,0.637-3.297,0.641c-32.171,0.093-64.342,0.099-96.513-0.033
		c-1.658-0.007-3.858,0.405-4.4-2.169c0.055-1.413-0.096-2.872,0.919-4.066c0.55-0.613,1.101-1.227,1.65-1.841
		c1.785-0.476,3.604-0.553,5.445-0.552c30.024,0.012,60.049,0.026,90.074-0.004C154.943,292.368,156.492,292.348,157.99,292.849z"/>
	<path fill-rule="evenodd" clip-rule="evenodd" fill="#86B8D9" d="M55.301,298.833c1.243,1.397,2.903,0.84,4.385,0.841
		c32.174,0.031,64.348,0.03,96.522,0.002c1.484-0.001,3.149,0.533,4.362-0.91c1.108,1.528,1.564,3.267,1.665,5.122
		c-0.176,1.957-1.79,1.918-3.109,2.123c-1.811,0.281-3.655,0.155-5.486,0.159c-32.121,0.067-64.241-0.116-96.362,0.061
		c-1.331,0.007-3.268,0.906-3.719-1.507C53.589,302.598,53.942,300.566,55.301,298.833z"/>
	<path fill-rule="evenodd" clip-rule="evenodd" fill="#5A9DC8" d="M52.748,325.998c-0.265-1.697-0.531-3.396-0.796-5.092
		c36.299,0.687,72.6,0.223,108.9,0.248c0.849,0,1.696-0.009,2.527,0.217c1.635,0.82,1.396,2.244,1.183,3.664
		c-0.383,1.112-0.989,2.043-2.102,2.557c-2.033,0.781-4.169,0.619-6.278,0.62c-31.897,0.015-63.795,0.03-95.692-0.025
		c-2.71-0.005-5.78,0.754-7.71-2.2L52.748,325.998z"/>
	<path fill-rule="evenodd" clip-rule="evenodd" fill="#7BB1D5" d="M53.559,304.724c2.281,1.246,4.587-0.033,6.876-0.024
		c32.332,0.128,64.666,0.097,96.999,0.059c1.615-0.002,3.426,0.634,4.801-0.87c1.269,1.21,0.662,2.797,0.848,4.226
		c-0.171,1.954-1.784,1.909-3.102,2.137c-1.527,0.264-3.09,0.162-4.639,0.162c-31.687,0.004-63.373,0.01-95.06-0.013
		c-2.373-0.002-4.807,0.314-7.06-0.822c-0.54-0.351-0.696-0.828-0.471-1.431C52.846,306.965,52.445,305.666,53.559,304.724z"/>
	<path fill-rule="evenodd" clip-rule="evenodd" fill="#6EAAD0" d="M52.752,308.147c0.015,0.289,0.03,0.579,0.044,0.87
		c1.975,2.533,4.839,1.985,7.443,1.996c16.388,0.065,32.776,0.031,49.164,0.032c15.964,0.002,31.928-0.015,47.893,0.018
		c2.235,0.004,4.551-0.287,6.587,1.063c1.006,1.308,0.997,2.626,0.048,3.956c-1.87,1.312-4.035,1.105-6.13,1.107
		c-33.134,0.027-66.268,0.024-99.401-0.001c-2.226-0.002-4.561,0.294-6.449-1.38C52.214,313.254,51.159,310.563,52.752,308.147z"/>
	<path fill-rule="evenodd" clip-rule="evenodd" fill="#69A7CE" d="M51.952,315.809c37.308,0.001,74.616,0.002,111.923,0.003
		c1.018,1.332,0.998,2.611-0.198,3.83c-1.935,1.148-4.091,0.94-6.191,0.941c-33.024,0.021-66.048,0.022-99.072-0.002
		c-2.232-0.002-4.564,0.277-6.458-1.384C51.955,318.068,51.954,316.938,51.952,315.809z"/>
	<path fill-rule="evenodd" clip-rule="evenodd" fill="#62A2CB" d="M51.956,319.197c37.304,0.001,74.607,0.002,111.911,0.004
		c0.731,0.852,0.732,1.698-0.015,2.54c-1.387,0.877-2.931,0.865-4.497,0.864c-34.171-0.012-68.341-0.015-102.512,0.008
		c-1.87,0-3.692,0.102-4.892-1.707C51.953,320.336,51.955,319.766,51.956,319.197z"/>
	<path fill-rule="evenodd" clip-rule="evenodd" fill="#9AC4DF" d="M157.99,292.849c-1.215,1.441-2.881,0.888-4.36,0.889
		c-30.456,0.03-60.911,0.031-91.366-0.001c-1.481-0.001-3.137,0.56-4.394-0.811c0.708-1.493,1.235-3.094,2.546-4.223
		c29.563,0.647,59.13,0.103,88.695,0.296c2.51,0.016,5.109-0.338,7.343,1.297C157.374,290.901,157.902,291.743,157.99,292.849z"/>
	<path fill-rule="evenodd" clip-rule="evenodd" fill="#A0C8E2" d="M156.454,290.295c-30.912,0.024-61.824,0.052-92.736,0.059
		c-1.33,0-2.981,0.45-3.302-1.651c0.422-0.942,0.759-1.943,1.734-2.502c1.907-0.619,3.876-0.603,5.851-0.602
		c26.753,0.008,53.507,0.014,80.26-0.008c1.84-0.001,3.654,0.097,5.444,0.529C154.952,287.294,155.94,288.638,156.454,290.295z"/>
	<path fill-rule="evenodd" clip-rule="evenodd" fill="#A8CDE4" d="M153.705,286.119c-1.099,1.299-2.605,0.836-3.954,0.838
		c-27.871,0.023-55.741,0.024-83.611-0.001c-1.352-0.001-2.848,0.468-3.99-0.755c0.46-1.16,1.304-1.993,2.306-2.689
		c2.063-1.081,4.274-1.322,6.573-1.321c25.017,0.012,50.034,0.015,75.051,0.001c1.708,0,3.386,0.108,5.017,0.649
		C151.965,283.934,152.835,285.026,153.705,286.119z"/>
	<path fill-rule="evenodd" clip-rule="evenodd" fill="#ABCEE6" d="M151.096,282.84c-0.884,0.993-2.072,0.734-3.173,0.734
		c-27.822-0.013-55.644-0.039-83.466-0.063c1.178-1.383,1.908-3.173,3.662-4.035c2.481-0.567,4.995-0.669,7.535-0.666
		c21.935,0.024,43.871,0.019,65.806,0.007c2.113-0.001,4.219-0.003,6.275,0.573C149.189,280.215,150.321,281.354,151.096,282.84z"/>
	<path fill-rule="evenodd" clip-rule="evenodd" fill="#B2D3E7" d="M147.735,279.391c-0.993,1.149-2.343,0.785-3.57,0.786
		c-24.146,0.018-48.292,0.018-72.438-0.001c-1.228-0.001-2.571,0.374-3.608-0.699c1.389-1.173,2.778-2.348,4.167-3.521
		c1.108,1.287,2.613,0.821,3.964,0.822c21.128,0.027,42.257,0.026,63.387,0.002c1.351-0.001,2.862,0.446,3.934-0.893
		C145.063,276.93,146.736,277.759,147.735,279.391z"/>
	<path fill-rule="evenodd" clip-rule="evenodd" fill="#3A84B7" d="M119.771,496.453c-0.276-0.022-0.551-0.041-0.828-0.055
		c-1.005-1.5,0.156-2.153,1.202-2.435c3.045-0.82,5.146-3.271,8.116-4.336c3.133-1.126,3.112-2.684,0.289-4.309
		c-1.354-0.78-1.436-1.603-0.7-2.709c1.022-1.536,2.278-2.855,3.939-3.748c0.414-0.181,0.839-0.299,1.283-0.375
		c2.1-0.247,4.203-0.199,6.307-0.171c1.911-0.031,3.82-0.104,5.728-0.008c1.836,0.028,3.697-0.178,5.464,0.524
		c1.188,2.52,0.335,7.134-1.86,9.425c-1.261,1.317-2.667,2.496-3.933,3.814c-1.29,1.342-3.367,2.398-0.067,4.179
		c1.941,1.048-0.474,2.599-0.695,4.023c2.029,0.625,4.205,0.604,6.126,1.489c0.819,0.378,2.062,0.949,0.334,1.905
		c-4.637-0.365-9.31-0.439-13.735-2.125l0.01,0.004c-0.225-0.197-0.314-0.408-0.267-0.632c0.048-0.23,0.106-0.345,0.17-0.344
		c0.651-0.32,1.372-0.335,1.11-0.394c-0.268,0.015-1.411,0.387-2.51,0.937c-2.634-0.644-5.442-0.624-7.843-2.113l0.005,0.004
		C124.91,498.029,122.135,497.855,119.771,496.453z"/>
	<path fill-rule="evenodd" clip-rule="evenodd" fill="#3E8DC0" d="M192.652,501.53c-0.544,0.009-1.088,0.019-1.633,0.028
		c-4.405,1.852-9.121,1.678-13.738,2.105c-4.418-0.148-8.869,0.321-13.656-0.313c0.684-1.825,2.196-2.073,3.256-2.82
		c1.708-1.203,2.958-2.149,2.723-4.952c-0.322-3.827,3.562-5.701,5.915-8.196c0.909-0.964,3.477-1.088,0.943-3.303
		c-0.929-0.812,0.349-2.387,1.443-3.072c1.657-1.04,3.248-2.196,5.008-3.084c3.316-0.405,6.607-1.139,9.977-0.75
		c1.675,0.903,0.616,2.166,0.413,3.309c-0.167,0.939-1.003,2.097-0.216,2.791c2.945,2.602,0.685,4.104-1.051,5.702
		c-2.226,2.05-4.117,4.496-7.494,5.567c1.854,1.232,3.298,0.732,4.644,0.921c3.363,0.47,3.657,1.24,1.779,4.234
		c-0.298,0.476,0.553,0.033,0.784,0.286c0.388,0.1,0.721,0.275,1.025,0.521C193.001,500.882,192.973,501.225,192.652,501.53z"/>
	<path fill-rule="evenodd" clip-rule="evenodd" fill="#3D8ABD" d="M182.538,478.801c-0.851,1.633-2.419,2.188-3.994,2.852
		c-0.679,0.286-1.461,1.159-1.542,1.844c-0.137,1.158,1.029,1.022,1.836,1.099c0.683,0.064,1.534,0.016,1.313,1.063
		c-0.146,0.693-0.598,1.276-1.406,1.391c-3.965,0.563-5.124,4.511-7.862,6.559c-0.397,0.298-0.849,1.182-0.689,1.468
		c3.476,6.228-3.612,5.08-4.779,8.197c3.376,0,7.302,0,11.228,0c0.254,0.211,0.326,0.4,0.215,0.57
		c-0.104,0.159-0.206,0.238-0.305,0.238c-7.325,0.003-14.649,0.005-21.974,0.008c-0.757-0.818-2.007-0.034-2.764-0.853
		c-0.119-1.408,1.015-2.264,1.486-3.407c0.648-1.571,3.745-1.859,1.952-4.931c-0.748-1.282,1.809-3.2,3.417-4.401
		c2.409-1.799,5.269-3.081,4.193-7.261c-0.429-1.666,1.539-3.488,3.385-4.491c2.952-0.833,6.092,0.068,9.014-1.027
		C177.772,477.519,180.373,476.717,182.538,478.801z"/>
	<path fill-rule="evenodd" clip-rule="evenodd" fill="#4092C4" d="M214.81,493.11c-0.011,0.27-0.029,0.538-0.054,0.806l0.009-0.004
		c-0.98,0.92-2.311,1.114-3.466,1.674c-1.014,0.641-2.111,0.978-3.321,0.896c-1.805,1.206-3.809,1.849-5.951,2.095
		c-1.234,0.046-2.458,0.836-3.694,0.063c-3.425-1.722-3.143-3.82-0.976-6.566c1.556-1.97,2.583-4.474,4.716-5.851
		c1.915-1.235,0.201-2.947,1.13-4.343c1.647-2.474,3.674-4.593,5.55-6.862c5.313-1.938,10.82-2.763,16.445-2.888
		c2.341,1.96,0.485,3.194-0.899,4.268c-1.43,1.109-3.172,1.844-4.345,3.269c-1.209,1.469-3.8,2.26-1.181,5.215
		c1.484,1.675-1.11,3.901-2.82,4.88c-2.973,1.702-5.705,3.765-9.148,5.693C209.727,494.303,211.552,491.105,214.81,493.11z"/>
	<path fill-rule="evenodd" clip-rule="evenodd" fill="#3981B5" d="M131.649,479.643c-1.252,1.442-2.504,2.885-3.731,4.3
		c1.449,1.599,4.918-0.685,4.703,2.304c-0.179,2.476-2.48,4.122-4.983,5.141c-3.108,1.266-6.066,2.877-8.695,5.012
		c-0.715,0.055-1.332-0.106-1.717-0.779c-1.041-0.735-2.531-0.554-3.388-1.663c-0.282-0.022-0.563-0.044-0.845-0.065
		c-0.751-1.131-2.032-1.82-2.65-3.027c0.761-1.303,2.146-1.364,3.223-1.947c1.909-1.032,3.32-2.251,3.527-4.741
		c0.287-3.454,2.224-5.633,5.938-5.798c2.523,0.033,5.059-0.285,7.551,0.355C131.036,478.921,131.391,479.226,131.649,479.643z"/>
	<path fill-rule="evenodd" clip-rule="evenodd" fill="#397FB3" d="M122.6,479.361c-3.145,0.519-4.375,2.107-4.469,5.538
		c-0.107,3.916-3.523,5.192-7.004,5.888c0.599,1.092,2.043,1.629,1.867,3.104c-0.704,0.013-1.326-0.145-1.7-0.816
		c-2.829-1.694-5.657-3.387-8.485-5.081c-1.308-1.342-2.521-2.484-0.011-4.058c2.155-1.352,2.388-4.457,4.633-5.898
		c1.321-0.548,2.709-0.592,4.108-0.583c2.688,0.023,5.375-0.137,8.064,0.033C120.847,477.718,122.176,477.82,122.6,479.361z"/>
	<path fill-rule="evenodd" clip-rule="evenodd" fill="#316CA1" d="M151.993,503.271c0.929,0.063,1.936-0.125,2.586,0.817
		c-5.099,0.582-10.08-0.932-15.152-0.848c-1.252,0.021-2.157-0.55-2.686-1.697c4.837,0.312,9.529,1.837,14.417,1.718
		C151.441,502.906,151.719,502.909,151.993,503.271z"/>
	<path fill-rule="evenodd" clip-rule="evenodd" fill="#306CA2" d="M176.554,504.081c0.031-0.27,0.061-0.539,0.089-0.809
		c4.792-0.571,9.584-1.142,14.376-1.714c-2.881,3.149-6.996,1.201-10.366,2.466C179.449,504.477,177.93,504.087,176.554,504.081z"/>
	<path fill-rule="evenodd" clip-rule="evenodd" fill="#3E8DC0" d="M197.805,498.164c1.417,0.002,2.834,0.003,4.251,0.005
		c0.278,0.208,0.359,0.398,0.245,0.571c-0.108,0.162-0.215,0.244-0.32,0.244l-0.39-0.009l-0.39,0.026
		c-2.642,1.467-5.455,2.094-8.471,1.721l-0.037-0.037c-0.67-0.848-0.321-1.504,0.389-2.095c1.312-0.74,2.735-0.463,4.13-0.445
		C197.41,498.15,197.608,498.157,197.805,498.164z"/>
	<path fill-rule="evenodd" clip-rule="evenodd" fill="#316CA1" d="M127.412,499.002c2.825,0.571,5.649,1.142,8.473,1.713
		c0.278-0.329,0.553-0.326,0.825,0.008c0.011,0.275,0.024,0.551,0.042,0.825C133.478,501.288,130.045,501.61,127.412,499.002z"/>
	<path fill-rule="evenodd" clip-rule="evenodd" fill="#306CA2" d="M192.73,500.723c2.824-0.573,5.647-1.147,8.471-1.721
		c-2.325,2.616-5.592,2.044-8.548,2.528C192.688,501.262,192.713,500.992,192.73,500.723z"/>
	<path fill-rule="evenodd" clip-rule="evenodd" fill="#316CA1" d="M119.771,496.453c2.737,0.286,5.307,1.073,7.645,2.553
		C124.689,498.69,121.751,499.005,119.771,496.453z"/>
	<path fill-rule="evenodd" clip-rule="evenodd" fill="#306CA2" d="M201.981,498.984c0.036-0.271,0.061-0.543,0.075-0.815
		c1.974-0.563,3.949-1.125,5.922-1.687C206.564,498.72,204.215,498.714,201.981,498.984z"/>
	<path fill-rule="evenodd" clip-rule="evenodd" fill="#316CA1" d="M113.838,493.956c1.353,0.099,2.525,0.567,3.388,1.663
		C115.905,495.456,114.141,496.196,113.838,493.956z"/>
	<path fill-rule="evenodd" clip-rule="evenodd" fill="#306CA2" d="M211.299,495.586c0.942-1,2.105-1.54,3.466-1.674
		C214.107,495.5,212.787,495.716,211.299,495.586z"/>
	<path fill-rule="evenodd" clip-rule="evenodd" fill="#4194C5" d="M214.81,493.11c-3.187-0.514-5.443,2.634-8.849,2.374
		c3.959-2.909,7.708-5.597,11.362-8.408c0.687-0.528,2.113-2.071,0.192-2.318c-4.108-0.53-1.793-2.298-0.733-3.331
		c2.063-2.009,3.592-4.668,6.681-5.554c1.375-0.396,2.294-1.582,2.311-3.194c0.02-1.354,0.769-1.348,1.738-0.932
		c0.558,0.043,1.116,0.085,1.673,0.128c1.68,0.095,3.354-0.189,5.029-0.114c1.118,0.049,2.352,0.147,2.838,1.38
		c0.48,1.217-0.311,2.147-1.074,2.98c-2.084,2.274-5.224,3.287-7.137,5.922c1.462,1.041,3.377-0.53,4.686,0.888
		c-2.355,2.489-5.233,4.11-8.491,5.098c-1.398,0.914-3.039,1.414-4.321,2.527l0.011-0.01c-1.914,1.011-4.258,1.025-5.941,2.568
		L214.81,493.11z"/>
	<path fill-rule="evenodd" clip-rule="evenodd" fill="#4196C7" d="M233.526,482.931c-1.257-0.142-2.336,0.966-3.675,0.458
		c-1.027-0.39-1.978,1.929-2.859,0.448c-0.934-1.571,0.749-2.554,1.739-3.385c2.132-1.789,4.461-3.343,6.646-5.072
		c0.605-0.479,1.503-1.169,0.865-2.061c-0.303-0.425-1.208-0.469-1.858-0.585c-1.729-0.31-3.668,0.666-5.2-0.859
		c9.74-3.056,19.384-6.382,28.828-10.271C250.875,469.89,243.207,477.564,233.526,482.931z"/>
	<path fill-rule="evenodd" clip-rule="evenodd" fill="#4092C4" d="M214.784,493.114c1.345-2.325,3.73-2.244,5.94-2.568
		C219.09,492.201,216.876,492.517,214.784,493.114z"/>
	<path fill-rule="evenodd" clip-rule="evenodd" fill="#4092C4" d="M220.714,490.556c0.905-1.756,2.502-2.33,4.32-2.528
		C224.018,489.594,222.467,490.247,220.714,490.556z"/>
	<path fill-rule="evenodd" clip-rule="evenodd" fill="#C83F34" d="M80.167,471.283c5.92-2.356,11.578-5.229,16.971-8.623
		c2.996-3.323,7.283-4.659,10.876-7.063c1.522-1.019,3.187-1.813,4.66-2.912c5.254-3.115,10.446-6.322,15.123-10.288
		c5.737-3.528,11.001-7.701,16.239-11.911c0.863-0.694,1.708-1.506,2.988-1.19c2.507,2.98,5.476,5.451,8.453,7.944
		c1.81,1.515,4.317,2.858,3.586,5.999c-1.764,3.028-5.227,2.966-7.912,4.311c-1.62,0.813-3.369,1.364-5.027,2.113
		c-4.799,1.606-9.498,3.491-14.269,5.175c-3.13,1.305-6.409,2.186-9.57,3.402c-8.676,3.182-17.409,6.201-26.091,9.364
		c-4.26,1.647-8.484,3.386-12.748,5.023c-1.64,0.629-3.33,1.624-5.03,0.083C78.247,471.311,79.954,472.213,80.167,471.283z"/>
	<path fill-rule="evenodd" clip-rule="evenodd" fill="#E5DF21" d="M78.418,472.71c4.618-0.104,8.266-3.042,12.496-4.282
		c1.721-0.506,3.418-1.094,5.125-1.645c1.387-0.83,2.074-0.098,2.191,1.179c0.133,1.443,0.332,2.966-0.662,4.266
		c-6.034,1.768-12.053,3.627-18.454,3.445c-1.192-0.099-2.647,0.027-1.648-1.935C77.784,473.396,78.101,473.053,78.418,472.71z"/>
	<path fill-rule="evenodd" clip-rule="evenodd" fill="#88A958" d="M77.466,473.738c-0.046,1.247,0.795,1.514,1.786,1.615
		c-0.034,0.166-0.069,0.333-0.103,0.499c-1.146,0.079-2.292,0.157-3.438,0.237C76.295,475.306,76.881,474.521,77.466,473.738z"/>
	<path fill-rule="evenodd" clip-rule="evenodd" fill="#377CB0" d="M107.053,478.546c-0.8,2.745-1.711,5.413-4.464,6.902
		c-1.85,1.001,0.899,1.631,0.219,2.546c-5.737-3.1-11.546-6.093-16.106-10.926c1.536-1.68,3.547-1.41,5.432-1.127
		c2.886,0.434,5.778,0.584,8.684,0.657C103.036,476.794,105.547,476.066,107.053,478.546z"/>
	<path fill-rule="evenodd" clip-rule="evenodd" fill="#2A723E" d="M101.119,477.67c-4.843,0.686-9.576-1.257-14.417-0.602
		c-2.518-0.405-5.036-0.81-7.553-1.216c0.03-0.167,0.063-0.334,0.103-0.499c6.112-1.323,12.224-2.645,18.335-3.968
		c1.427-1.542,3.191-1.521,5.045-1.09C105.318,473.404,102.708,475.433,101.119,477.67z"/>
	<path fill-rule="evenodd" clip-rule="evenodd" fill="#3990C1" d="M243.055,305.781c-0.114,0.515-0.229,1.029-0.344,1.544
		c-0.072,2.892-2.017,4.938-3.279,7.293c-1.062,2.016-2.49,3.816-3.437,5.898c-1.298,2.539-3.006,4.847-4.195,7.447
		c-0.557,0.986-1.26,1.879-1.802,2.874c-1.035,2.015-2.422,3.82-3.421,5.856c-1.075,2.072-2.681,3.721-4.288,5.367
		c-0.213,0.027-0.427,0.058-0.641,0.091c-2.37,1.766-5.122,1.095-7.743,1.173c-1.541,0.047-3.088-0.114-4.607,0.266
		c-1.227,0.157-2.304-0.139-3.164-1.063c-1.34-3.588,0.711-6.082,2.85-8.606c-0.748-1.443-2.203-0.748-3.294-1.065
		c-1.112-0.325-2.218-0.585-2.417-1.951c-0.195-1.334,0.689-2.036,1.691-2.631c1.209-0.717,2.455-1.392,3.858-1.593
		c1.697-0.244,2.827-1.102,3.379-2.722c0.822-1.53,2.525-3.013-0.307-4.424c-1.191-0.594-0.522-1.798,0.08-2.562
		c1.851-2.347,3.786-4.811,7.144-4.678c3.354,0.133,5.504-1.813,7.749-3.764c0.528-0.461,0.893-0.775,0.801-1.687
		c-0.539-5.409,0.676-6.587,5.809-5.774c0.832,0.132,1.688,0.031,2.494,0.322C238.362,302.808,240.25,305.036,243.055,305.781z"/>
	<path fill-rule="evenodd" clip-rule="evenodd" fill="#368ABE" d="M163.852,321.741c0.005-0.847,0.01-1.693,0.015-2.54
		c0.003-1.13,0.006-2.26,0.009-3.39c-0.009-1.133-0.02-2.266-0.029-3.398c-1.151-1.408-0.905-2.81,0.021-4.208
		c0.286-2.063,1.885-1.711,3.236-1.714c8.689-0.017,17.38,0.049,26.068-0.046c2.352-0.026,3.933,1.134,5.48,2.582
		c1.246,2.609-1.339,3.287-2.382,4.746c-3.371,2.022-7.033,3.245-8.255,8.065c-1.021,4.021-13.505,9.656-17.154,8.768
		c0.707-3.323-0.729-4.653-4.014-4.444c-1.072,0.068-2.228-0.044-3.007-1.032C163.844,324,163.848,322.87,163.852,321.741z"/>
	<path fill-rule="evenodd" clip-rule="evenodd" fill="#76AFD3" d="M163.868,308.205c-0.007,1.403-0.014,2.807-0.021,4.208
		c-35.501,0.002-71.002,0.002-106.502,0.011c-2.389,0-5.134,0.538-4.548-3.406c35.306,0.003,70.611,0.013,105.917-0.014
		c1.482-0.001,3.15,0.553,4.369-0.89C163.345,308.146,163.606,308.177,163.868,308.205z"/>
	<path fill-rule="evenodd" clip-rule="evenodd" fill="#378EC2" d="M235.971,301.394c-1.145,0.594-2.408,1.266-3.618,0.627
		c-2.709-1.43-3.632,0.627-4.463,2.305c-1.242,2.507,1.9,1.671,2.68,3.205c-4.206,1.934-6.685,6.755-12.564,5.943
		c-2.735-0.378-4.048,3.111-6.065,4.817c0.6,1.838,3.377-0.037,3.517,2.155c0.112,1.768-1.878,2.377-2.386,3.846
		c-2.595,1.857-5.195,3.467-7.877,0.135c-0.632-2.096,2.697-4.163-0.272-6.545c-1.077-0.865,0.655-2.752,1.98-3.675
		c1.621-1.126,3.369-2.079,4.771-3.502c1.167-1.186,2.496-1.977,0.76-4.116c-1.912-2.357,0.83-3.252,2.335-4.348
		c0.883-0.647,1.766-1.294,3.317-2.432c-2.723,0-4.717,0-6.973,0C215.879,293.107,228.305,294.096,235.971,301.394z"/>
	<path fill-rule="evenodd" clip-rule="evenodd" fill="#378CC0" d="M214.768,302.242c-0.308,1.575-4.876,3.275,0.26,4.761
		c1.148,0.332,0.038,1.552-0.565,2.327c-1.83,2.355-4.236,3.941-6.699,5.538c-1.804,1.169-4.497,2.689-0.25,4.372
		c1.092,0.433,0.55,0.95,0.152,1.543c-0.771,1.151-1.489,2.338-2.229,3.51c-2.673,1.81-5.964,1.114-8.817,2.184
		c-1.106-0.192-2.007-0.938-3.152-1.113c-1.225-0.188-2.7-0.383-2.775-2.034c-0.063-1.392,0.983-2.256,2.043-3
		c1.043-0.732,2.318-1.021,3.375-1.716c3.255-2.146,3.246-3.409-0.002-5.346c-0.033-1.942,2.856-2.132,2.545-4.241
		c2.773-0.955,5.261-2.089,7.15-4.677C207.989,301.356,211.366,301.22,214.768,302.242z"/>
	<path fill-rule="evenodd" clip-rule="evenodd" fill="#378EC2" d="M221.714,293.586c-3.145-0.667-6.246-0.898-9.718,0.664
		C214.426,289.939,217.599,289.779,221.714,293.586z"/>
	<path fill-rule="evenodd" clip-rule="evenodd" fill="#357AAF" d="M113.195,453.298c-5.034,3.666-10.403,6.759-16.057,9.362
		c-2.976-0.16-3.636-1.332-1.457-3.546c0.975-0.991,2.164-1.769,3.211-2.693c0.616-0.545,1.748-1.494,1.621-1.744
		c-2.134-4.236,1.264-4.828,3.789-6.18c1.168-0.625,2.827-2.586,1.264-3.189c-5.196-2.006-0.854-3.412,0.169-4.641
		c1.042-1.252,2.665-2.021,3.8-2.835c-1.253-2.22-2.752-1.037-3.561-2.061c0.711-2.763,4.242-1.755,5.433-4.027
		c1.803-3.44-0.033-4.26-3.831-4.056c1.929-1.997,3.935-2.204,5.19-3.733c1.239-1.51,2.336-2.321,0.495-4.013
		c-1.568-1.439,0.035-2.272,0.862-3.012c2.146-1.921,3.565-3.786,0.561-6.126c2.471-1.158,3.659-3.521,5.809-5.651
		c-1.094-0.146-1.636-0.136-2.118-0.301c-1.108-0.379-3.353,1.034-3.123-1.333c0.156-1.604,1.914-2.244,3.679-1.903
		c1.362,0.263,2.733,0.486,4.104,0.703c2.278,0.359,3.962-0.488,4.405-2.788c0.51-2.657-2.159-1.746-3.987-3.146
		c2.607,0,4.553,0,6.499,0c0.817,0.914,2.3,0.834,2.962,1.99c0.346,1.266-0.161,2.299-0.87,3.282
		c-0.707,0.813-1.858,1.484-0.742,2.805c0.95,1.124,0.219,2.112-0.354,3.07c-0.963,1.608-3.349,2.836-0.372,5.073
		c1.189,0.894-0.635,2.438-1.51,3.462c-1.21,1.417-2.444,2.23-1.534,4.892c1.024,2.994-2.416,4.237-5.209,5.676
		c3.271,0.647,3.072,2.225,1.415,4.045c-1.485,1.632-2.75,3.215-1.42,5.591c0.458,0.817-0.079,1.714-0.669,2.297
		c-4.099,4.051-5.608,10.163-11.001,13.32C111.564,452.643,112.748,452.343,113.195,453.298z"/>
	<path fill-rule="evenodd" clip-rule="evenodd" fill="#3888BA" d="M130.8,389.601c4.121-1.085,5.906-4.904,8.421-7.725
		c0.389-0.436-0.158-4.642-2.43-5.589c-2.35-0.979-2.642-1.698-0.791-3.366c0.593-0.535,1.495-1.126,1.144-2.056
		c-0.459-1.217-1.691-0.598-2.591-0.773c-0.754-0.147-1.893,0.432-2.161-0.635c-0.281-1.115,0.762-1.608,1.574-2.206
		c3.143-2.313,6.845-2.398,10.795-2.327c-1.241-2.515-3.381-0.989-4.912-2.095c2.413-3.109,5.812-1.728,8.763-2.065
		c-0.297,2.397-0.627,4.804,3.177,3.443c1.23-0.44,2.527-0.522,3.473,0.542c1.281,1.439,0.079,2.51-0.72,3.621
		c-0.57,0.792-0.178,1.233,0.64,1.455c2.222,0.419,4.092,1.018,1.782,3.638c-0.795,0.901-0.283,2.168-0.51,2.866
		c-1.17,3.601-0.95,7.363-1.792,10.939c-0.344,1.459-2.348,1.794-3.824,2.238c-1.527,0.171-3.062,0.049-4.47,0.087
		c1.362,0.269,3.632-0.681,4.054,1.361c0.478,2.309-1.785,3.516-3.277,4.922c-0.598,0.28-1.224,0.354-1.874,0.284
		c-4.143-1.207-8.49-1.918-11.926-4.86c-0.848-0.286-1.695-0.572-2.542-0.857C130.801,390.162,130.801,389.882,130.8,389.601z"/>
	<path fill-rule="evenodd" clip-rule="evenodd" fill="#357DB1" d="M133.345,391.301c4.011,1.265,8.095,2.322,11.875,4.233
		c0.311,0.314,0.736,0.351,1.123,0.496c1.706,0.646,3.741,1.217,3.563,3.512c-0.169,2.172-2.364,2.042-3.863,2.628
		c-0.391,0.152-0.808,0.235-1.43,0.695c0.457,0.973,1.772,1.013,2.347,1.824c1.348,1.904,0.702,3.731-1.739,4.426
		c-2.028,0.576-5.148,0.245-2.498,3.835c0.217,0.295,0.018,0.877-0.251,1.179c-4.627,5.175-4.109,12.562-7.815,18.127
		c-0.233,0.351-0.72,0.816-0.618,1.063c2.148,5.215-3.051,6.096-5.138,8.801c-0.257,0.332-0.409,0.733-0.556,1.129
		c-4.698,3.88-9.773,7.19-15.148,10.049c-1.239-0.077-2.478-0.153-4.953-0.309c5.888-4.008,8.01-9.832,11.999-14.239
		c0.866-0.958,2.446-1.678,0.35-3.171c-1.425-1.016-0.233-2.382,0.441-3.332c0.957-1.349,2.19-2.501,3.322-3.757
		c-1.129-1.456-2.847-0.067-4.031-1.287c1.149-1.362,2.397-2.333,4.272-2.847c1.208-0.33,2.401-1.62,2.483-3.161
		c0.086-1.625-2.049-0.464-2.492-1.906c1.841-1.938,3.754-3.951,6.075-6.394c-4.955-0.308-3.984-2.102-1.776-4.581
		c0.75-0.841,4.137-1.861,0.251-3.97c-1.628-0.883,0.895-2.447,2.512-2.871c0.625-1.044,2.377-1.807,0.848-3.391
		c-0.841-0.577-3.417,1.449-2.545-1.697C131.145,394.731,133.962,394.161,133.345,391.301z"/>
	<path fill-rule="evenodd" clip-rule="evenodd" fill="#3277AE" d="M112.868,390.539c0.929,0.099,1.761,0.451,1.402,0.937
		c-1.472,1.991-2.941,4.095-5.559,4.751c-0.779,0.196-1.642-0.219-1.276-1.042C108.539,392.705,111.132,391.931,112.868,390.539z"/>
	<path fill-rule="evenodd" clip-rule="evenodd" fill="#3788BB" d="M154.549,370.941c-2.302-0.245-2.603-1.316-1.219-3.025
		c0.631-0.779,2.384-1.078,1.472-2.512c-0.938-1.474-2.15-0.197-3.307-0.015c-1.554,0.245-3.606,1.111-4.607-0.68
		c-0.901-1.612,1.232-2.565,1.725-3.946c1.228-0.856,2.455-1.713,4.469-3.117c-2.851,0-4.836,0-6.957,0
		c0.176-1.47,1.963-1.496,1.641-2.819c3.123-3.029,8.259-0.105,11.908-3.997c-2.474-0.157-4.228-0.269-6.375-0.405
		c1.493-1.236,2.096-2.862,3.874-3.395c1.011-0.303,2.495-0.665,2.233-2.067c-0.33-1.767-2.022-0.953-3.159-1.162
		c-0.594-0.948-0.038-1.771,0.275-2.624c0.489-0.968,1.007-1.922,1.458-2.91c0.393-0.823,0.776-1.65,1.167-2.476
		c0.709-1.331,1.191-2.748,1.577-4.202c0.489-1.72,0.778-3.535,2.292-4.758c0.029-0.688,0.161-1.324,0.827-1.701
		c1.792,0.02,3.617-0.157,5.368,0.123c1.39,0.222,3.308,0.172,3.791,1.901c0.478,1.71-1.656,1.95-2.335,3.076
		c5.923,2.784,6.48,5.259,2.434,10.841c-0.49,0.676-1.042,1.29-1.831,1.636c-1.435,0.415-2.917,0.136-4.373,0.274
		c1.547-0.062,3.096,0.001,4.644-0.032c1.176-0.025,2.425,0.078,2.771,1.398c0.389,1.487-0.746,2.292-1.859,2.978
		c-1.867,1.147-4.167,0.67-6.443,1.76c1.407,0.917,4.002,0.195,3.986,2.081c-0.026,3.018-3.799,2.439-5.064,4.735
		c1.942-0.323,3.882,0.022,5.812,0.406c1.084,0.216,2.437,0.271,2.695,1.631c0.309,1.625-1.158,2.112-2.233,2.681
		c-3.27,1.727-6.837,1.428-10.353,1.326c-1.109-0.033-2.207-0.548-3.323-0.029c-0.563-0.054-0.244,0.848-0.25,0.282
		c0-0.082,0.094-0.063,0.24-0.104c1.226-0.336,2.326-0.127,2.894,1.064c0.603,1.264-0.397,2.12-1.128,2.94
		C157.776,367.782,156.102,369.304,154.549,370.941z"/>
	<path fill-rule="evenodd" clip-rule="evenodd" fill="#299548" d="M227.511,471.747c-0.58,0.311-1.158,0.621-1.738,0.932
		c-5.681,1.015-11.438,1.635-16.989,3.317c-4.868,2.319-9.926,3.153-15.245,1.944c-3.667,0.286-7.335,0.573-11.002,0.86
		c-2.465-0.021-4.93-0.043-7.395-0.064c-2.329,0.7-4.715,0.298-7.068,0.299c-3.3,0.002-4.19-1.526-2.532-4.509
		c1.42-2.556,3.056-5,4.96-7.252c2.527-2.99,4.953-6.059,6.329-9.8c0.376-0.595,0.87-1.063,1.482-1.408
		c4.463-1.322,9.106-1.987,13.481-3.646c6.186-1.475,12.324-3.129,18.401-5.004c4.845-1.353,9.547-3.12,14.224-4.953
		c0.377-0.156,0.767-0.279,1.156-0.396c2.656-0.857,5.245-1.884,7.75-3.122c3.239-1.093,6.139-3.151,9.668-3.42
		c4.913-2.229,9.956-4.218,14.205-7.676c2.613-0.438,4.242-2.757,6.694-3.503c-1.429,4.468-3.965,8.281-7.411,11.366
		c-1.784,1.598-3.581,2.938-4.688,5.233c-3.056,6.335-8.56,10.62-13.495,15.363c-0.599,0.575-1.326,1.063-1.776,1.738
		C233.486,462.592,230.508,467.176,227.511,471.747z"/>
	<path fill-rule="evenodd" clip-rule="evenodd" fill="#C52F1B" d="M218.065,348.719c3.598,4.352,8.883,4.347,13.782,5.188
		c1.521,0.261,3.225,0.132,4.489,0.957c4.634,3.024,10.409,2.958,15.121,5.774c1.125,0.673,2.773,1.586,4.015,0.771
		c4.011-2.632,7.535-0.368,11.24,0.688c4.028,1.149,7.806,3.396,12.226,2.894c-3.319,5.535-7.678,10.174-12.477,14.43
		c-1.359,1.021-2.885,1.092-4.435,0.654c-5.003-1.413-10.026-2.623-14.882-4.682c-7.368-3.124-14.955-5.811-22.698-7.91
		c-5.146-1.396-9.557-4.048-13.816-7.082C210.896,355.105,213.759,351.453,218.065,348.719z"/>
	<path fill-rule="evenodd" clip-rule="evenodd" fill="#C73926" d="M243.821,399.052c-2.362,1.878-4.724,3.756-7.085,5.635
		c-2.948,3.354-6.423,5.842-10.926,6.641c-1.946-0.523-3.386-1.955-5.103-2.898c-4.129-2.271-4.161-3.33-0.197-6.053
		c-3.037-3.048-6.582-5.284-10.473-6.871c-6.01-2.452-11.101-6.589-17.083-9.072c-1.094-0.454-1.767-1.37-1.73-2.659
		c1.695-3.463,3.257-7.052,7.599-8.004c6.648,3.859,13.084,8.157,20.847,9.649c2.376,0.457,4.256,2.148,6.33,3.269
		c4.813,2.598,9.612,5.152,14.725,7.131C242.112,396.355,243.457,397.338,243.821,399.052z"/>
	<path fill-rule="evenodd" clip-rule="evenodd" fill="#F1D216" d="M225.869,410.966c3.623-2.093,7.245-4.186,10.867-6.279
		c0.222,1.049,0.444,2.098,0.676,3.197c1.839,0.647,3.134-4.23,5.429-0.464c1.184,1.941,1.599,3.095-0.278,4.969
		c-5.205,5.196-4.885,10.096,0.812,14.632c2.91,2.316,2.473,4.452,0.037,6.514c-0.875,0.74-1.829,0.971-0.418,1.991
		c-2.916,1.898-6.044,3.317-9.422,4.172c-0.123,0.063-0.255,0.197-0.367,0.182c-4.477-0.636-4.476-0.638-7.414,3.023
		c-0.271,0.07-0.542,0.142-0.813,0.212c-2.807-4.502-2.481-9.411,1.028-12.659c1.385-1.282,2.294-2.676,1.46-4.397
		c-2.039-4.212-1.519-9.089-3.629-13.259C223.764,411.357,224.619,410.942,225.869,410.966z"/>
	<path fill-rule="evenodd" clip-rule="evenodd" fill="#C63823" d="M243.821,399.052c-2.499-1.468-4.78-3.16-7.713-4.016
		c-5.318-1.551-9.759-5.056-14.571-7.718c-1.613-0.894-3.197-0.75-4.733-1.235c-5.669-1.791-10.719-4.955-16.001-7.597
		c-0.912-0.456-1.454-1.651-2.167-2.505c-0.148-2.635,1.357-4.087,3.585-5.027c5.464-1.376,9.359,2.353,13.646,4.446
		c9.2,4.496,18.104,9.543,28.314,11.686c3.249,0.682,7.057,1.257,8.73,5.05C250.055,394.669,247.254,397.275,243.821,399.052z"/>
	<path fill-rule="evenodd" clip-rule="evenodd" fill="#C6341E" d="M210.483,359.9c2.425,0.133,3.992,1.993,5.976,3.008
		c8.006,4.093,16.825,5.87,25.177,8.97c6.695,2.484,13.108,5.746,20.238,7.042c1.54,0.279,3.042,0.475,4.586,0.502
		c-1.915,3.163-4.76,5.396-7.611,7.624c-4.463,0.403-8.149-1.697-11.856-3.702c-6.352-3.438-13.651-4.33-20.097-7.534
		c-5.036-2.504-10.283-4.569-15.289-7.133c-1.724-0.882-3.581-1.714-4.758-3.422C206.422,362.359,207.812,360.694,210.483,359.9z"/>
	<path fill-rule="evenodd" clip-rule="evenodd" fill="#C63621" d="M206.945,364.928c7.622,3.667,15.107,7.662,22.904,10.909
		c7.523,3.133,15.576,4.899,22.72,9.125c1.766,1.044,4.347,0.834,6.281,2.084c-1.627,2.106-3.767,3.617-5.939,5.09
		c-4.561-3.658-10.313-4.173-15.619-5.809c-5.22-1.609-9.928-4.333-14.932-6.339c-6.82-2.733-12.353-8.732-20.45-8.247
		C202.104,368.374,203.861,366.161,206.945,364.928z"/>
	<path fill-rule="evenodd" clip-rule="evenodd" fill="#3B91BF" d="M206.945,364.928c-1.928,2.087-3.752,4.25-5.035,6.813
		c-1.092,1.413-2.183,2.826-3.275,4.24c-2.991,1.907-4.509,5.117-6.774,7.666c-0.708,0.891-0.297,2.562-1.946,2.8
		c-2.692-1.678-2.917-3.453-1.789-6.66c1.063-3.021,2.898-6.175,2.202-9.749c-0.416-2.137,0.699-3.795,2.095-5.282
		c2.315-2.463,3.766-6.21,9.736-4.769c-3.844-3.218-2.599-4.832-0.231-6.05c4.047-2.083,4.757-7.364,9.279-9.094
		c-1.06-0.663-2.702-0.099-2.377-1.891c4.172-1.863,8.553-0.396,12.817-0.801c-1.194,2.188-2.388,4.378-3.583,6.566
		c-2.527,3.728-5.055,7.454-7.582,11.182C209.063,361.406,207.811,363.031,206.945,364.928z"/>
	<path fill-rule="evenodd" clip-rule="evenodd" fill="#C1281B" d="M222.288,342.062c1.192-1.963,2.385-3.925,3.577-5.888
		c4.351-1.88,7.496,1.296,10.904,2.831c5.763,2.6,11.792,5.442,17.735,6.194c6.177,0.781,11.977,2.562,17.97,3.744
		c1.259,0.249,2.446,0.677,3.364,1.641c1.13,1.188,1.344,2.742,1.691,4.243c-3.807,0.131-7.447-0.392-11.17-1.482
		c-7.978-2.336-16.323-3.542-24.118-6.329c-4.838-1.729-10.312-2.113-14.495-5.761C225.973,339.707,224.109,341.681,222.288,342.062
		z"/>
	<path fill-rule="evenodd" clip-rule="evenodd" fill="#B7251D" d="M230.948,327.693c1.465-2.542,2.93-5.085,4.396-7.628
		c3.503-1.057,6.562,0.689,9.517,1.915c5.931,2.46,12.623,2.378,18.25,5.707c0.565,0.565,1.13,1.132,1.695,1.696
		c-0.126,2.186,2.681,2.899,2.548,5.087c-5.839,4.129-11.525,3.475-17.13-0.512c-0.801-0.569-1.728-1.226-2.682-1.174
		C241.369,333.118,236.525,329.224,230.948,327.693z"/>
	<path fill-rule="evenodd" clip-rule="evenodd" fill="#B3251D" d="M263.11,327.688c-5.027-1.161-10.095-2.177-15.07-3.53
		c-4.287-1.164-8.468-2.713-12.696-4.092c1.131-1.98,2.263-3.961,3.394-5.941c2.588-1.226,5.118-1.203,7.359,0.683
		c2.5,2.103,6.171,0.299,8.532,2.702C257.297,321.035,261.048,323.657,263.11,327.688z"/>
	<path fill-rule="evenodd" clip-rule="evenodd" fill="#AF251E" d="M254.629,317.509c-5.683,0.682-10.283-3.719-15.891-3.385
		c1.324-2.267,2.648-4.532,3.973-6.799C247.568,309.684,251.289,313.373,254.629,317.509z"/>
	<path fill-rule="evenodd" clip-rule="evenodd" fill="#BF261B" d="M275.838,350.584c-5.37-0.765-10.514-2.382-15.621-4.141
		c-0.384-0.131-0.775-0.5-1.12-0.451c-8.936,1.262-16.043-3.8-23.787-6.732c-3.085-1.169-5.967-3.091-9.447-3.086
		c1.17-1.966,2.342-3.934,3.513-5.899c5.272,1.268,10.536,2.8,15.438,4.964c7.34,3.24,15.121,4.118,22.819,5.325
		c3.01,0.473,4.422,1.822,5.66,4.084c0.281,0.283,0.563,0.566,0.843,0.85C274.704,347.192,275.271,348.888,275.838,350.584z"/>
	<path fill-rule="evenodd" clip-rule="evenodd" fill="#BB261C" d="M273.294,344.647c-2.665-4.029-7.461-3.756-11.023-3.903
		c-6.371-0.263-11.935-2.458-17.618-4.563c-5.115-1.896-10.819-2.312-15.275-5.907c0.524-0.859,1.047-1.72,1.571-2.58
		c3.309-1.281,6.177,0.998,8.728,1.999c5.848,2.292,12.257,2.976,17.755,6.343c1.492,0.914,3.879,1.32,5.661-0.881
		c0.875-1.079,2.669-1.49,4.261-0.684C268.859,338.141,272.829,340.371,273.294,344.647z"/>
	<path fill-rule="evenodd" clip-rule="evenodd" fill="#4F97C4" d="M163.014,326.831c-0.557,1.7-0.432,3.624-1.676,5.098
		c-1.625,1.455-3.645,1.374-5.612,1.375c-31.881,0.029-63.761,0.028-95.642,0.002c-1.971-0.002-3.984,0.061-5.614-1.38
		c-0.793-1.914-1.713-3.793-1.69-5.939c1.657,1.055,3.514,0.852,5.339,0.852C93.084,326.835,128.049,326.833,163.014,326.831z"/>
	<path fill-rule="evenodd" clip-rule="evenodd" fill="#4992C2" d="M54.47,331.926c35.623,0.001,71.245,0.002,106.868,0.003
		c0.047,1.659-0.361,3.136-1.696,4.242c-1.506,1.371-3.371,1.261-5.209,1.261c-31.498,0.007-62.995,0.001-94.493,0.003
		c-1.272,0-2.546,0.016-3.768-0.426C55.604,335.314,55.037,333.62,54.47,331.926z"/>
	<path fill-rule="evenodd" clip-rule="evenodd" fill="#3D8CBD" d="M157.093,341.257c-0.283,0.849-0.566,1.696-0.848,2.544
		c-1.595,1.273-3.351,1.744-5.446,1.739c-28.581-0.064-57.162-0.098-85.743,0.029c-3.426,0.015-5.247-1.381-6.347-4.313
		c1.456-1.517,3.361-1.254,5.171-1.255c29.348-0.017,58.695-0.017,88.042,0C153.732,340.002,155.638,339.739,157.093,341.257z"/>
	<path fill-rule="evenodd" clip-rule="evenodd" fill="#448FC0" d="M56.171,337.009c1.663-1.037,3.518-0.842,5.344-0.842
		c32.708,0.002,65.417,0.002,98.126,0.004c-0.284,0.847-0.569,1.692-0.854,2.54c-1.708,1.216-3.657,1.28-5.659,1.278
		c-30.151-0.015-60.303-0.015-90.455,0c-2.001,0.002-3.951-0.06-5.658-1.279C56.735,338.143,56.453,337.575,56.171,337.009z"/>
	<path fill-rule="evenodd" clip-rule="evenodd" fill="#418DC0" d="M57.016,338.71c33.924,0,67.848,0,101.772,0.001
		c-0.564,0.85-1.13,1.697-1.695,2.546c-32.795,0-65.59-0.001-98.384-0.001C58.145,340.407,57.58,339.559,57.016,338.71z"/>
	<path fill-rule="evenodd" clip-rule="evenodd" fill="#3C88BB" d="M151.993,503.271l-0.417,0.004l-0.417-0.014
		c-2.981-1.663-6.375-1.485-9.678-1.972c-0.031-2.334,3.323-1.87,3.012-4.308c-0.541-0.993-1.647-0.399-2.521-0.514
		c-1.669-0.219-1.938-0.91-0.893-2.174c0.357-0.431,0.746-0.844,1.17-1.207c4.227-3.627,7.825-7.667,8.907-13.384
		c0.586-0.987,1.57-1.175,2.589-1.296c1.501-0.16,3.008-0.145,4.516-0.092c2.475,0.24,5.188-0.817,7.313,1.331
		c0.219,2.019-4.168,3.376-0.745,6.111c0.558,0.445-1.688,2.648-2.953,3.733c-1.272,1.092-2.861,1.824-4.083,2.961
		c-0.879,0.818-1.92,2.036-1.929,3.084c-0.015,1.639,2.166,0.35,3.074,1.525C154.891,497.341,154.313,501.238,151.993,503.271z"/>
	<path fill-rule="evenodd" clip-rule="evenodd" fill="#2A8C46" d="M153.702,479.364c-0.849,0.114-1.697,0.228-2.546,0.34
		c-1.978-0.113-3.956-0.228-5.934-0.341c-1.213-2.662,0.866-3.664,2.427-5.044c3.645-3.222,6.508-6.874,5.777-12.205
		c0.089-0.434,0.32-0.758,0.693-0.991c2.514-0.908,5.094-1.423,7.773-1.373c2.924,0.137,3.584,1.64,2.528,4.19
		c-0.267,0.646-0.349,1.515-0.862,1.884C158.776,469.263,156.547,474.534,153.702,479.364z"/>
	<path fill-rule="evenodd" clip-rule="evenodd" fill="#2A8945" d="M153.511,462.46c0.657,0.42,2.808-0.703,1.719,1.512
		c-2.126,4.322-2.78,9.63-8.147,11.825c-1.235,0.506-1.656,2.149-1.859,3.566c-1.979,0-3.958,0-5.937,0
		c-0.279-0.325-0.61-0.83-0.386-1.108c3.936-4.915,4.223-12.187,10.182-15.794C150.558,461.55,152.036,461.232,153.511,462.46z"/>
	<path fill-rule="evenodd" clip-rule="evenodd" fill="#2A8543" d="M149.375,463.156c-5.205,4.256-5.977,11.271-10.089,16.207
		c-2.262,0.001-4.523,0.001-6.786,0.001c-1.043-2.812,0.597-4.755,2.298-6.546c1.143-1.202,2.275-2.444,3.521-3.538
		c1.635-1.436,1.672-3.007,0.824-4.803c1.424-1.774,3.643-1.284,5.463-1.941C146.254,462.301,147.908,462.024,149.375,463.156z"/>
	<path fill-rule="evenodd" clip-rule="evenodd" fill="#2A8243" d="M138.995,464.946c4.901,0.568,1.84,2.854,0.746,4.247
		c-2.577,3.282-6.567,5.53-7.241,10.171c-0.284,0.093-0.567,0.186-0.851,0.278c-0.306-0.12-0.612-0.239-0.918-0.359
		c-1.611-0.739-4.141,0.806-4.918-0.995c-0.78-1.805,1.5-3.039,2.612-4.382c2.174-2.626,2.447-6.214,4.598-8.838
		C134.989,463.765,136.977,463.549,138.995,464.946z"/>
	<path fill-rule="evenodd" clip-rule="evenodd" fill="#3C88BB" d="M136.709,500.723l-0.412,0.003c0,0-0.412-0.012-0.412-0.011
		c0.975-1.137,2.146-1.004,3.466-0.557C138.563,501.122,137.552,500.517,136.709,500.723z"/>
	<path fill-rule="evenodd" clip-rule="evenodd" fill="#3F8FC1" d="M193.54,477.94c5.082-0.648,10.164-1.296,15.245-1.944
		c-0.311,2.174-2.797,2.758-3.448,4.619c-1.891,5.409-5.348,9.847-8.823,14.242c-1.734,2.192,2.833,1.468,1.291,3.307h0
		c-1.271,0.994-2.978-0.191-4.24,0.848c-0.675,0.357-0.828,0.986-0.871,1.674c-1.392,0-2.783,0-4.227,0
		c0.241-1.205,1.422-0.86,1.917-1.516c0.482-0.639,1.42-1.091,0.955-2.081c-0.357-0.761-1.2-0.488-1.856-0.627
		c-2.22-0.467-5.672,1.362-6.483-1.077c-1.048-3.151,3.329-1.74,4.671-3.505c1.416-1.861,3.438-3.257,5.164-4.89
		c0.583-0.552,1.528-1.556,0.693-2.038C189.281,482.501,192.338,480.259,193.54,477.94z"/>
	<path fill-rule="evenodd" clip-rule="evenodd" fill="#299247" d="M165.574,479.647c-2.542-0.094-5.085-0.189-7.627-0.283
		c-0.876-1.178-0.025-1.894,0.812-2.36c2.921-1.629,4.257-4.365,5.39-7.293c1.032-2.667,2.401-5.315,4.888-6.691
		c2.655-1.47,1.427-2.935,0.713-4.608c2.424-1.59,4.929-2.428,7.702-0.867c0.023,4.404-3.332,7.019-5.704,9.979
		c-1.848,2.307-3.146,4.961-5.123,7.137c-0.808,0.89-1.321,1.878-0.781,3.05c0.616,1.337,1.924,0.885,2.98,0.928
		c2.104,0.084,4.211,0.071,6.318,0.099C172.048,480.032,168.737,479.062,165.574,479.647z"/>
	<path fill-rule="evenodd" clip-rule="evenodd" fill="#2A8043" d="M133.336,465.936c-1.688,4.358-2.966,8.956-7.518,11.935
		c1.739,1.378,3.72,0.145,4.913,1.414c-2.711,0.025-5.422,0.052-8.132,0.077c-0.938-0.251-1.875-0.502-2.814-0.752
		c-0.369-0.969,0.132-1.814,0.812-2.197c3.976-2.235,5.554-6.17,7.317-9.997c0.796-0.854,1.779-1.308,2.937-1.396
		C131.803,464.987,132.661,465.215,133.336,465.936z"/>
	<path fill-rule="evenodd" clip-rule="evenodd" fill="#2A783F" d="M101.119,477.67c0.184-2.311,2.112-4.181,1.684-6.646
		c-0.113-0.845,0.384-1.423,1.077-1.533c4.775-0.768,9.435-2.578,14.402-1.688c2.194,3.443-0.067,5.783-2.249,7.858
		c-1.276,1.216-2.964,2.125-4.698,2.762c-1.427,0.042-2.854,0.083-4.282,0.124C105.178,477.553,103.076,478.102,101.119,477.67z"/>
	<path fill-rule="evenodd" clip-rule="evenodd" fill="#2A7D41" d="M111.335,478.422c2.34-3.479,7.452-4.905,7.474-10.1
		c-0.127-0.527,0.042-0.928,0.505-1.207c2.954-0.646,5.869-2.325,8.931-0.367c-0.291,5.758-4.739,8.55-8.46,11.861
		C116.968,478.547,114.151,478.484,111.335,478.422z"/>
	<path fill-rule="evenodd" clip-rule="evenodd" fill="#4092C4" d="M193.564,499.012c1.188-1.412,2.811-0.644,4.24-0.848
		C196.617,499.577,194.994,498.808,193.564,499.012z"/>
	<path fill-rule="evenodd" clip-rule="evenodd" fill="#367FB3" d="M128.344,443.249c0.52-3.064,2.458-4.832,5.782-5.925
		c-2.695-1.498-2.458-2.814-0.841-5.12c2.042-2.913,4.426-6.65,4.186-9.846c-0.343-4.562,3.209-6.147,4.549-9.261
		c-0.33-1.2-2.959,0.028-2.313-2.114c0.473-1.567,1.376-2.664,3.287-2.76c1.361-0.067,3.492,0.881,3.759-1.482
		c0.229-2.032-1.36-2.523-3.096-2.427c-0.981,0.055-1.174-0.67-1.282-1.337c-0.144-0.893,0.603-1.154,1.267-1.406
		c0.129-0.049,0.284-0.026,0.415-0.071c5.436-1.886,5.436-1.887,1.165-5.966c0.567,0,1.134-0.002,1.701-0.003
		c3.429-1.242,6.267,1.11,9.422,1.535c1.375,0.502,2.867,0.693,4.13,1.501c0.957,1.205,0.963,2.826-0.368,3.191
		c-3.214,0.883-3.238,3.932-4.792,5.72c-2.454,2.824-2.612,6.708-5.406,9.115c-0.888,0.766-1.617,2.025,0.296,2.427
		c4.344,0.909,3.946,2.765,1.264,5.289c-0.534,0.502-0.488,1.292-0.636,1.976c-0.729,1.785-1.563,3.45-3.909,3.34
		C140.767,434.217,134.885,439.183,128.344,443.249z"/>
	<path fill-rule="evenodd" clip-rule="evenodd" fill="#C83E32" d="M146.923,429.625c1.157-1.173,2.314-2.346,3.472-3.52
		c1.343-2.565,3.036-4.744,6.045-5.476c7.657,2.124,12.532,8.392,18.757,12.651c0.948,0.648,1.343,1.798,0.914,3.031
		c-2.318,2.604-5.683,3.312-8.634,4.771c-2.767,0.638-5.119,2.782-8.203,2.289c-0.152-0.14-0.304-0.281-0.456-0.423
		c-1.631-4.713-6.504-6.241-9.53-9.603C148.24,432.185,147.126,431.249,146.923,429.625z"/>
	<path fill-rule="evenodd" clip-rule="evenodd" fill="#EFE419" d="M133.336,465.936c-0.844-0.04-1.688-0.082-2.532-0.122
		c-1.492-1.671-0.62-3.368,0.048-4.98c0.915-2.208,1.389-4.421,0.771-6.783c4.654-2.116,9.403-3.978,14.33-5.365
		c1.221,0.571,1.619,1.688,1.199,2.775c-1.496,3.872-2.133,7.919-2.744,11.981c-1.804,0.502-3.608,1.004-5.412,1.505
		C137.089,465.161,135.053,464.641,133.336,465.936z"/>
	<path fill-rule="evenodd" clip-rule="evenodd" fill="#E9E224" d="M119.031,467.702c-0.087,0.202-0.161,0.409-0.221,0.62
		c-5.403,0.504-10.774,1.192-16.007,2.701c-1.739,0.121-3.477,0.242-5.216,0.363c-2.18-0.976,1.708-3.99-1.547-4.604
		c8.558-3.621,17.321-6.668,26.208-9.369c2.194,0.334,0.782,1.501,0.374,2.148c-0.898,1.425-2.128,2.614-3.169,3.949
		C118.39,464.872,117.921,466.178,119.031,467.702z"/>
	<path fill-rule="evenodd" clip-rule="evenodd" fill="#F0E217" d="M144.408,463.441c-1.263-3.663-0.53-7.046,1.243-10.38
		c0.7-1.317,1.221-2.851,0.302-4.376c4.095-2.346,8.972-2.938,12.865-5.735c0,0-0.096,0.306-0.096,0.306
		c1.882,2.425,0.635,4.81-0.869,6.421c-2.762,2.96-4.226,6.057-3.492,10.104c0.122,0.671-0.408,1.316-0.495,2.01
		c-0.108,0.229-0.227,0.452-0.356,0.671c-1.406,0.068-2.864-0.175-4.136,0.696C147.719,463.252,146.064,463.346,144.408,463.441z"/>
	<path fill-rule="evenodd" clip-rule="evenodd" fill="#EDE423" d="M119.031,467.702c-2.527-0.119-3.187-0.827-1.647-3.305
		c1.507-2.426,4.492-3.808,4.863-6.983c2.973-1.548,6.115-2.621,9.376-3.364c2.764,0.749,1.609,2.649,1.269,4.313
		c-0.52,2.533-2.505,4.655-2.087,7.451c-0.853,0.312-1.706,0.623-2.559,0.935C125.174,467.065,122.103,467.385,119.031,467.702z"/>
	<path fill-rule="evenodd" clip-rule="evenodd" fill="#388DBE" d="M196.108,325.989c2.798-2.282,6.131-1.614,9.329-1.696
		c2.545,2.436,5.089-0.101,7.634,0c-0.275,2.102-1.48,3.267-3.583,3.364c-1.165,0.054-2.242,0.264-3.059,1.108
		c-0.77,0.794-2.945,0.338-2.34,2.269c0.432,1.377,1.911,0.704,2.94,0.897c1.405,0.267,3.425-0.843,4.075,1.062
		c0.588,1.728-1.635,1.917-2.39,2.918c-1.342,1.78-2.398,3.826-2.428,6.193c-0.096,0.103-0.205,0.195-0.283,0.31
		c-1.479,2.158-5.45-1.492-6.362,3.141c-0.532,2.702-4.583,3.947-5.177,7.342c-0.263,1.498-1.94,1.859-3.205,2.426
		c0.562,1.548,3.331,1.403,2.463,3.529c-0.686,1.681-2.294,2.44-3.991,2.75c-1.772,0.321-3.549,0.887-5.396,0.439
		c-0.785-0.36-1.237-1.011-1.558-1.774c-0.23-0.509-0.374-1.166-0.851-1.422c-2.664-1.429-1.917-2.759-0.092-4.338
		c0.903-0.78,2.042-1.989,0.006-2.889c-1.182-0.522-2.512-0.873-2.333-2.515c0.207-1.892,1.798-2.313,3.281-2.795
		c0.65-0.21,1.388-0.22,2.036-0.992c-1.252-1.196-4.635-0.255-3.896-3.499c2.475-1.432,5.232-0.455,7.814-0.921
		c1.738-0.314,4.036-0.324,2.168-3.27c-0.997-1.572,0.832-2.764,1.296-4.224c-2.193-0.766-4.346-0.042-6.353-0.629
		c-1.464-0.427-2.568-2.028-0.897-2.44C188.912,329.359,192.069,326.555,196.108,325.989z"/>
	<path fill-rule="evenodd" clip-rule="evenodd" fill="#398FBF" d="M184.234,361.612c2.29-1.079,5.066-0.21,7.212-1.756
		c0.622-0.448,1.623-0.644,1.655-1.696c-0.404-1.083-1.461-0.586-2.151-0.936c-0.827-0.418-2.137-0.48-2.064-1.739
		c0.069-1.205,1.163-1.47,2.186-1.478c2.109-0.018,2.994-0.851,2.781-3.117c-0.164-1.741,1.469-2.646,2.729-3.436
		c1.366-0.854,2.259-1.977,2.976-3.319c-0.893-0.746-2.375,0.21-3.099-1.461c3.269-1.133,6.594-0.323,9.826-0.57
		c0.848,0.283,1.696,0.564,2.544,0.849c0.839,1.309,2.372,0.556,4.151,1.366c-5.668,3.045-6.439,10.364-12.938,11.725
		c0.404,2.359,3.802,0.202,3.138,2.684c-0.409,1.527-2.315,1.838-3.903,2.031c-2.008,0.245-4.749-0.53-3.719,3.438
		c0.297,1.144-1.831,0.581-2.845,0.808c-2.154,1.721-4.613,3.047-3.917,6.697c0.438,2.291-2.401,2.275-4.019,3.576
		c2.947,1.497,2.487,3.385,0.659,5.322c-0.9,0.954-1.009,2.036-1.255,3.309c-0.577,2.979-2.272,5.356-5.936,5.045
		c-0.205-2.198,0.331-4.326-0.814-6.626c-0.899-1.806,1.916-3.185,2.541-5.038c0.397-0.854,0.409-1.784,0.514-2.697
		c0.171-3.883,1.871-7.491,2.026-11.37C182.562,362.049,182.848,361.284,184.234,361.612z"/>
	<path fill-rule="evenodd" clip-rule="evenodd" fill="#378ABE" d="M196.108,325.989c-3.278,2.606-6.501,5.331-11.418,4.41
		c0.096,0.431,0.192,0.859,0.288,1.29c3.166,0,6.331,0,9.582,0c-0.099,2.183-1.654,2.705-2.415,3.792
		c-0.459,0.656-1.286,1.242-0.347,2.11c0.637,0.589,2.822-0.045,1.77,1.794c-0.78,1.364-1.792,2.831-3.891,2.742
		c-2.94-0.126-5.889-0.026-8.834-0.023c-3.11,2.129-6.22,1.455-9.331,0c0.767-1.34,1.488-2.708,2.309-4.014
		c2.568-4.092-0.949-5.706-3.156-7.86c5.133,1.116,8.233-2.709,11.709-5.168c2.548-1.805,5.606-3.137,6.106-7.484
		c0.335-2.912,4.76-3.3,7.627-4.311c1.122,0.01,2.256-0.078,3.364,0.053c1.861,0.222,2.201,1.509,0.958,2.558
		c-1.92,1.62-2.787,4.524-5.999,4.704c-1.304,0.072-3.003,1.139-2.945,2.599c0.073,1.845,1.977,0.899,3.074,1.124
		C195.564,324.511,195.989,325.063,196.108,325.989z"/>
	<path fill-rule="evenodd" clip-rule="evenodd" fill="#3379AF" d="M132.498,398.083c0.841,0.115,1.828,0.38,1.498,1.392
		c-0.323,0.991-0.848,2.186-2.346,1.999C131.932,400.344,132.214,399.214,132.498,398.083z"/>
	<path fill-rule="evenodd" clip-rule="evenodd" fill="#3379AF" d="M124.267,408.24c-0.184,0.695-0.431,1.365-1.228,1.536
		c-0.596,0.129-1.185-0.003-1.216-0.736c-0.035-0.812,0.548-1.252,1.261-1.446C123.628,407.443,124.221,407.391,124.267,408.24z"/>
	<path fill-rule="evenodd" clip-rule="evenodd" fill="#388ABC" d="M171.512,342.104c3.11,0,6.22,0,9.331,0
		c0.887,1.99,2.679,1.648,4.335,1.713c0.784,0.03,1.854-0.217,2.023,0.921c0.138,0.926-0.644,1.59-1.377,1.903
		c-0.866,0.37-1.881,0.376-2.812,0.614c-1.2,0.308-2.767,0.503-2.762,2.051c0.005,1.63,1.57,1.205,2.601,1.272
		c2.325,0.153,2.742,1.227,1.334,2.931c-1.037,1.256-1.837,2.784-3.547,3.471c1.148,0.877,4.591-0.498,2.748,2.936
		c-1.618,2.815-4.572,1.495-6.859,2.24c-0.32,0.104-1.045-0.162-0.883,0.558c0.032,0.143,0.75,0.229,1.07,0.536
		c0.18,1.125-0.622,1.586-1.435,1.727c-5.991,1.035-8.332,6.692-12.718,9.381c0.158,0.785,0.318,0.998,0.576,1.138
		c1.302,0.707,3.662-0.103,3.956,1.723c0.324,2.012-1.61,3.118-3.256,3.95c-2.481,1.256-4.033,3.447-5.871,5.388
		c-1.803,1.904-3.676,4.167-6.809,2.196c0.872-1.228,3.167-0.792,3.332-2.816c0.059-0.727,0.959-1.819-0.276-2.129
		c-3.814-0.954-1.215-2.229-0.364-3.625c0.674-1.104,4.402-1.617,0.54-4.021c-1.355-0.842,2.008-2.985,2.987-4.664
		c-0.883-0.913-1.913-0.41-2.827-0.556c-0.577-3.146,2.879-3.494,3.89-5.565c0.366-0.75,2.111-0.864,1.274-2.172
		c-0.731-1.141-1.774-0.179-2.678,0.015c-0.652,0.141-1.306,0.279-2.335,0.499c1.264-3.647,3.978-3.013,6.337-2.857
		c6.125,0.405,7.609,0.117,11.943-2.893c-3.709-1.326-7.344-1.015-11.704-0.581c2.503-3.19,5.537-4.277,8.381-5.906
		c-1.983-1.674-4.157-0.261-6.039-1.305c0.876-1.983,2.256-3.075,4.51-2.99c1.266,0.048,2.552,0.097,3.706-0.607
		c0.801-0.489,2.061-0.73,1.698-2.021c-0.293-1.04-1.395-0.686-2.187-0.747c-2.854-0.218-5.782,0.433-9.701-0.767
		C165.565,341.576,168.593,342.335,171.512,342.104z"/>
	<path fill-rule="evenodd" clip-rule="evenodd" fill="#3A8BBB" d="M151.157,388.752c1.096-0.157,2.49,0.061,3.24-0.534
		c4.258-3.376,7.086-8.325,12.969-10.591c-1.188-0.529-1.408-0.666-1.648-0.729c-1.662-0.433-4.311,1.064-4.865-1.09
		c-0.572-2.224,1.966-3.462,3.65-4.613c0.787-0.539,1.775-0.722,2.224-1.731c1.897-4.274,6.194-4.726,9.875-6.155
		c1.992,0.605,2.142,0.795,1.062,1.79c-1.656,1.526-4.503,2.352-2.8,5.547c0.021,0.039-0.026,0.281-0.175,0.349
		c-6.386,2.863-3.312,8.552-3.903,13.126c-0.317,2.452-4.53,5.2-8.605,5.471c0.953,0.039,1.907-0.006,2.859,0.035
		c0.85,0.035,1.919,0.083,2.077,1.026c0.235,1.4-1.111,1.441-1.992,1.557c-3.934,0.514-6.539,2.97-8.879,5.858
		c-3.108-0.846-6.216-1.69-9.324-2.536c0.558-1.727,1.932-2.932,3.163-4.37c-2.202-1.37-4.412-0.232-6.968-1.106
		C145.84,387.993,148.635,389.049,151.157,388.752z"/>
	<path fill-rule="evenodd" clip-rule="evenodd" fill="#F1D416" d="M224.183,412.523c1.823,2.126,3.012,4.542,2.594,7.381
		c-0.234,1.59,0.551,2.624,1.128,3.905c1.386,3.074,2.53,6.175-2.041,7.917c-1.582,0.604-1.94,2.329-1.755,3.996
		c0.273,2.466,0.578,4.928,0.869,7.392c-4.604,2.269-9.422,3.923-14.436,5.014c-1.53,0.837-2.319,0.01-2.062-1.345
		c1.028-5.409-0.008-10.765-0.275-16.126c-0.177-3.557,0.027-6.99,1.041-10.39c0.511-1.273,1.5-2.056,2.688-2.638
		c2.708-1.037,5.238-2.416,7.729-3.905C221.007,412.922,222.342,411.64,224.183,412.523z"/>
	<path fill-rule="evenodd" clip-rule="evenodd" fill="#F0D717" d="M209.675,420.301c0.985,3.334-1.66,6.531-0.17,9.993
		c1.578,3.661-1.002,7.752,0.882,11.581c0.628,1.276,0.269,2.997-0.842,4.346c-0.963,1.169-0.237,1.739,0.998,1.907
		c-5.928,2.49-12.157,3.918-18.419,5.229c-2.348,0.246-2.084-1.635-1.944-2.826c0.331-2.824,0.383-5.604-0.063-8.408
		c-0.087-0.551-0.124-1.296,0.235-1.641c3.394-3.265,2.897-7.559,3.183-11.65c1.207-2.663,3.979-3.165,6.17-4.474
		c2.114-0.996,4.217-2.013,6.231-3.219C207.056,420.468,208.161,419.362,209.675,420.301z"/>
	<path fill-rule="evenodd" clip-rule="evenodd" fill="#F0DA17" d="M194.343,428.364c0.12,1.904-0.521,3.773,0.538,5.728
		c0.917,1.692-0.404,3.18-1.656,4.38c-0.598,0.573-1.862,1.177-1.796,1.606c0.683,4.41-0.965,8.939,0.694,13.278
		c-4.445,1.75-9.071,2.788-13.78,3.505c-0.893-1.283-0.843-2.947-0.382-4.066c1.81-4.4-0.498-9.277,1.82-13.57
		c0.794-1.472-0.519-2.656-0.901-3.969c1.004-2.877,4.034-2.631,6.082-3.888c1.775-1.09,3.865-1.577,5.734-2.523
		C191.873,428.392,193.019,427.682,194.343,428.364z"/>
	<path fill-rule="evenodd" clip-rule="evenodd" fill="#F0DC17" d="M179.078,435.373c1.253,0.738,3.33,1.121,2.204,3.24
		c-2.68,5.045-1.064,10.631-2.227,15.849c-0.181,0.812-0.472,1.601-0.712,2.399c-0.297,0.228-0.595,0.455-0.893,0.683
		c-2.588,0.26-5.171,0.549-7.586,1.622c-0.55,0.51-1.198,0.621-1.91,0.475c-2.655-2.802-1.628-6.396-1.222-9.377
		c0.454-3.332,0.698-6.556,0.39-9.866c2.876-1.428,5.752-2.855,8.628-4.283C176.739,435.328,177.68,434.32,179.078,435.373z"/>
	<path fill-rule="evenodd" clip-rule="evenodd" fill="#F1D416" d="M225.792,442.902c0.278-0.92,0.522-1.853,0.841-2.759
		c1.512-4.299,2.017-4.392,5.067-1.18c0.418,0.44,1.238,0.498,1.872,0.733C231.182,441.259,228.553,442.241,225.792,442.902z"/>
	<path fill-rule="evenodd" clip-rule="evenodd" fill="#C73C29" d="M224.183,412.523c-4.181,1.565-7.422,5.051-11.976,5.854
		c-3.583-1.812-7.397-3.193-9.413-7.211c-1.258-2.509-4.265-3.065-6.477-4.493c-4.981-3.216-8.394-8.126-13.012-11.718
		c0.612-4.164,3.409-6.666,6.704-8.788c0.617-0.841,1.234-1.681,1.852-2.521c0.077,0.922,0.549,1.513,1.38,1.952
		c7.77,4.112,15.448,8.407,23.326,12.299c2.649,1.309,4.069,3.649,6.349,5.051c-0.619,1.363-1.588,0.959-2.363,1.065
		c-0.942,0.13-2.142-0.113-2.184,1.341c-0.03,1.04,0.91,1.447,1.673,1.656c2.415,0.662,4.104,2.315,5.826,3.954
		C225.307,411.485,224.745,412.004,224.183,412.523z"/>
	<path fill-rule="evenodd" clip-rule="evenodd" fill="#3C90BE" d="M190.01,386.168c-2.255,2.824-4.511,5.649-6.767,8.474
		c-1.598,3.29-3.751,6.067-7.118,7.736c-2.492,0.408-4.853-0.007-7.103-1.115c-0.989-0.565-1.679-1.463-2.46-2.263
		c-1.7-1.739-1.943-3.337,0.363-4.791c1.507-0.949,3.324-1.631,1.366-4.054c-0.753-0.933,0.792-2.001,1.899-2.149
		c2.737-0.37,5.554-1.063,8.108,0.746c3.792-1.707,3.862-2.056,4.038-5.66c0.063-1.291,1.409-2.279,2.478-3.233
		c1.297-1.157,2.71-2.666-0.603-3.167c-0.881-0.134-1.52-0.823-1.311-1.816c0.153-0.729,0.778-1.195,1.51-1.269
		c2.538-0.258,4.663,0.001,2.963-4.118c-0.783-1.896,2.246-4.437,5.343-4.483c-0.743,2.395-2.963,4.674-0.353,7.312
		c0.454,0.459-0.208,1.34-0.855,1.707c-1.526,0.866-2.698,1.713-0.847,3.461c0.551,0.52,0.365,1.546-0.234,1.896
		C186.832,381.478,188.266,383.795,190.01,386.168z"/>
	<path fill-rule="evenodd" clip-rule="evenodd" fill="#298F47" d="M168.073,459.123c0.597,0.015,1.194,0.028,1.792,0.043
		c1.018,0.196,2.501-0.597,2.918,0.85c0.318,1.102-0.429,2.466-1.406,2.828c-4.031,1.499-5.686,4.964-6.68,8.527
		c-1.082,3.882-4.352,5.473-6.75,7.993c-1.415,0-2.83,0-4.245,0c0.737-2.264,1.368-4.571,2.244-6.78
		c0.765-1.928,1.601-3.69,4.026-4.459c2.679-0.849,3.283-3.706,4.019-6.081c0.549-1.77-1.193-0.927-1.92-1.241
		C163.315,457.538,166.059,459.635,168.073,459.123z"/>
	<path fill-rule="evenodd" clip-rule="evenodd" fill="#F0DF17" d="M168.073,459.123c-1.768,1.39-4.248,0.235-6.001,1.68
		c-2.735,0.329-5.47,0.658-8.205,0.987c-0.855-4.238-2.164-8.449,2.428-11.707c2.171-1.542,2.545-4.215,2.427-6.827
		c2.8-0.952,5.601-1.904,8.4-2.857c1.893,2.345,2.289,4.848,1.144,7.708C166.821,451.717,167.959,455.444,168.073,459.123z"/>
	<path fill-rule="evenodd" clip-rule="evenodd" fill="#3A8DBC" d="M178.297,388.752c-3.146,0.282-6.4-0.623-9.552,0.658
		c0.529,1.776,2.119,0.503,2.898,1.426c0.088,1.384-1.197,2.598-1.935,2.856c-5.406,1.891-2.711,4.399-0.739,6.925
		c-3.21,1.377-5.982,0.53-8.487-1.672c-1.485,0.057-2.938-0.045-4.239-0.878c-0.29-0.864-1.245-1.869,0.139-2.521
		c3.288-1.548,5.433-5.562,9.902-5.019c-2.514,0-5.029,0-7.845,0c0.842-2.303,2.478-1.886,3.65-1.718
		c3.315,0.476,4.989-2.178,7.323-3.55c0.584-0.344,1.112-1.063,0.193-1.65c-2.063-1.319-1.112-2.48,0.098-3.688
		c0.62-0.619,1.063-1.347,0.72-2.264c-1.551-4.149-1.56-4.149,2.799-6.706c0.341-0.201,0.936,0.148,0.544-0.863
		c-1.172-3.024-0.957-3.267,2.462-5.083c0.628-0.333,1.82-0.226,1.162-1.499c-0.083-0.158-0.519-0.136-0.791-0.197
		c-0.806,0-1.613,0-2.614,0c1.089-2.083,2.662-2.653,4.624-2.552c1.649,0.087,3.297,0.081,4.775-0.841
		c0.283,0.565,0.566,1.13,0.849,1.696c-0.565,0.333-1.555,1.118-0.911,1.376c2.273,0.908,1.185,1.78,0.486,3.106
		c-0.834,1.583-3.585,2.777-0.892,5.395c1.113,1.081-1.69,2.216-2.077,3.693c-0.352,0.565-0.446,1.13,0,1.696
		c0.058,1.305-0.178,2.427-1.374,3.266c-1.65,1.158-2.266,2.239-0.047,3.741C182.843,386.201,177.742,386.892,178.297,388.752z"/>
	<path fill-rule="evenodd" clip-rule="evenodd" fill="#3681B5" d="M160.483,398.945c2.83,0.557,5.658,1.114,8.487,1.672
		c2.524,0.214,4.955,1.3,7.555,0.821c0.651,2.519-1.806,3.204-2.792,4.759c-3.183,3.09-6.303,6.246-9.407,9.417
		c-2.469,2.153-4.508,4.94-8.062,5.503c-2.589,0.917-3.455,3.864-5.869,4.988c-1.534-1.59-0.192-2.497,0.9-3.294
		c0.669-0.487,1.652-0.646,1.274-1.766c-0.347-1.024-1.326-0.798-2.13-0.914c-1.163-0.168-2.779,0.585-3.286-1.044
		c-0.446-1.433,0.982-2.171,1.785-3.093c1.265-1.452,3.718-2.494,1.66-5.084c-0.126-0.159,0.368-1.179,0.749-1.318
		c2.95-1.078,5.048-2.236,3.024-6.062c-0.555-1.048,1.865-1.223,2.944-1.668C158.78,401.26,160.869,401.507,160.483,398.945z"/>
	<path fill-rule="evenodd" clip-rule="evenodd" fill="#C83D30" d="M156.264,421.117c2.481-2.052,4.962-4.104,7.442-6.154
		c4.258,0.052,7.793,2.288,11.133,4.384c4.501,2.823,8.361,6.655,13.75,7.994c1.055,0.263,1.992,1.051,2.498,2.147
		c-4.003,1.962-8.006,3.923-12.009,5.885c-1.109,0.246-2.219,0.494-3.328,0.741c-1.976-4.516-6.983-5.664-10.048-9.037
		C163.18,424.3,159.56,422.877,156.264,421.117z"/>
	<path fill-rule="evenodd" clip-rule="evenodd" fill="#3C90BE" d="M180.842,376.879c-0.646-0.196-1.814,0.453-1.837-0.682
		c-0.019-0.913,1.07-0.923,1.837-1.015C181.706,375.748,181.706,376.313,180.842,376.879z"/>
	<path fill-rule="evenodd" clip-rule="evenodd" fill="#C73B2B" d="M173.045,405.649c1.16-1.403,2.319-2.807,3.479-4.21
		c2.239-2.267,4.479-4.531,6.718-6.798c2.962,0.56,5.153,2.815,6.675,4.799c3.008,3.921,6.728,6.419,11.048,8.36
		c0.125,0.057,0.267,0.137,0.338,0.247c2.823,4.302,7.153,7.011,10.904,10.331c-0.844,0.641-1.688,1.28-2.532,1.922
		c-3.11,1.577-6.22,3.153-9.33,4.73c-5.42-6.349-13.273-9.091-20.03-13.45C177.648,409.86,174.414,408.93,173.045,405.649z"/>
	<path fill-rule="evenodd" clip-rule="evenodd" fill="#C73C2D" d="M173.045,405.649c6.348,4.546,13.334,8.038,19.958,12.127
		c2.951,1.822,6.979,2.742,7.342,7.255c-2,1.111-4.001,2.223-6.002,3.334c-1.085,0.374-2.171,0.749-3.256,1.123
		c-6.089-2.052-11.6-4.972-16.643-9.122c-3.018-2.483-7.122-3.647-10.738-5.403C166.819,411.858,169.932,408.754,173.045,405.649z"
		/>
</g>
</svg>
