<?xml version="1.0" encoding="UTF-8" standalone="no"?>
<!-- Generator: Adobe Illustrator 16.0.0, SVG Export Plug-In . SVG Version: 6.00 Build 0)  -->

<svg
   xmlns:dc="http://purl.org/dc/elements/1.1/"
   xmlns:cc="http://creativecommons.org/ns#"
   xmlns:rdf="http://www.w3.org/1999/02/22-rdf-syntax-ns#"
   xmlns:svg="http://www.w3.org/2000/svg"
   xmlns="http://www.w3.org/2000/svg"
   xmlns:xlink="http://www.w3.org/1999/xlink"
   xmlns:sodipodi="http://sodipodi.sourceforge.net/DTD/sodipodi-0.dtd"
   xmlns:inkscape="http://www.inkscape.org/namespaces/inkscape"
   version="1.1"
   id="Capa_1"
   x="0px"
   y="0px"
   width="789.39178"
   height="302.89917"
   viewBox="0 0 789.39178 302.89917"
   enable-background="new 0 0 792 612"
   xml:space="preserve"
   inkscape:version="0.91 r13725"
   sodipodi:docname="drupaleando_con_altura_logo.svg"><metadata
     id="metadata63"><rdf:RDF><cc:Work
         rdf:about=""><dc:format>image/svg+xml</dc:format><dc:type
           rdf:resource="http://purl.org/dc/dcmitype/StillImage" /><dc:title></dc:title></cc:Work></rdf:RDF></metadata><defs
     id="defs61"><linearGradient
       gradientTransform="translate(175.79573,-235.36878)"
       inkscape:collect="always"
       xlink:href="#linearGradient5583"
       id="linearGradient5591"
       x1="197.90976"
       y1="320.37112"
       x2="197.91833"
       y2="297.88885"
       gradientUnits="userSpaceOnUse" /><linearGradient
       inkscape:collect="always"
       id="linearGradient5583"><stop
         style="stop-color:#398300;stop-opacity:1;"
         offset="0"
         id="stop5585" /><stop
         style="stop-color:#d40000;stop-opacity:1"
         offset="1"
         id="stop5587" /></linearGradient></defs><sodipodi:namedview
     pagecolor="#ffffff"
     bordercolor="#666666"
     borderopacity="1"
     objecttolerance="10"
     gridtolerance="10"
     guidetolerance="10"
     inkscape:pageopacity="0"
     inkscape:pageshadow="2"
     inkscape:window-width="1366"
     inkscape:window-height="714"
     id="namedview59"
     showgrid="false"
     inkscape:zoom="0.73989899"
     inkscape:cx="318.41674"
     inkscape:cy="144.73756"
     inkscape:window-x="0"
     inkscape:window-y="25"
     inkscape:window-maximized="1"
     inkscape:current-layer="Capa_1"
     showguides="true"
     inkscape:guide-bbox="true"
     fit-margin-top="0"
     fit-margin-left="0"
     fit-margin-right="0"
     fit-margin-bottom="0"><sodipodi:guide
       position="-38.227206,650.33369"
       orientation="0,1"
       id="guide4186" /><sodipodi:guide
       position="15.290882,623.57465"
       orientation="0,1"
       id="guide4188" /></sodipodi:namedview><g
     id="g3430"
     transform="matrix(0.60501243,0,0,0.60501243,-106.21333,118.64191)"><path
       style="opacity:0.9;fill:#008ece;fill-opacity:1;stroke:url(#linearGradient5591);stroke-width:10;stroke-miterlimit:10;stroke-dasharray:none"
       id="path3"
       d="m 251.59173,11.551213 c -53.625,66.383 -49.588,163.899997 12.109,225.596997 66.016,66.014 173.045,66.014 239.059,0 61.697,-61.697 65.725,-159.213997 12.1,-225.596997 -50.676,-64.467 -101.41,-93.991996 -131.629,-173.667993 -30.219,79.675997 -80.963,109.201993 -131.639,173.667993 z"
       stroke-miterlimit="10"
       inkscape:connector-curvature="0" /><g
       style="fill:#00598e;fill-opacity:1;stroke:none"
       id="g5664"
       transform="translate(175.79573,-235.36878)"><path
         style="fill:#00598e;fill-opacity:1;fill-rule:evenodd;stroke:none;stroke-width:1px;stroke-linecap:butt;stroke-linejoin:miter;stroke-opacity:1"
         d="m 44.626636,375.64874 c 0.44896,0 6.237725,-1.95305 10.146499,-4.4896 8.44045,-5.47732 19.035908,-19.84404 19.035908,-19.84404 l 0.858195,0.15354 5.587344,-4.31749 c 0,0 27.936718,1.52382 29.460538,2.03176 1.52383,0.50794 67.30211,10.92072 69.84181,11.17469 2.5397,0.25397 76.699,-11.68263 76.699,-11.68263 0,0 28.44466,10.92072 30.98436,12.69851 2.5397,1.77779 0,0 5.33338,2.5397 5.33337,2.5397 60.19093,9.65087 60.19093,9.65087 l 10.41278,18.79379 c 0,0 5.57762,2.35359 -5.50548,28.35223 -8.06333,18.9149 -27.93143,44.64989 -45.96332,59.38016 C 293.6767,494.8205 256.32016,516.61288 208.45666,517.94984 160.59316,519.28681 96.572161,490.99734 63.777862,432.4334 49.71958,407.32817 44.626636,375.64874 44.626636,375.64874 Z"
         id="path5651"
         inkscape:connector-curvature="0"
         sodipodi:nodetypes="cscccsscssccsszsc" /></g><path
       sodipodi:nodetypes="zsccsscscscsscscssscssssssccsscsscscsssscsssscsscsssscsscscssccsssccsssssssssssscssssssssscsscssscsscsscsssssssscscscccssscscssssscz"
       inkscape:connector-curvature="0"
       id="path5627"
       d="m 251.14638,116.89159 c -1.34835,0.53777 -5.78033,4.31726 0.68469,-4.66194 6.46503,-8.97921 11.60168,-12.715277 11.60168,-12.715277 l 7.18336,-6.10586 c 0,0 7.9017,-5.74669 10.77504,-8.26086 2.87334,-2.51418 1.79584,-1.43668 3.23251,-2.87335 1.43668,-1.43667 9.33837,-7.9017 9.33837,-7.9017 0,0 5.74669,-0.71833 7.9017,2.87335 2.15501,3.59168 5.02835,6.10586 5.02835,6.10586 0,0 1.22212,-2.42683 3.88881,-0.52205 l 2.66669,1.90477 c 0,0 8.00006,6.22227 8.63498,7.36514 0.63493,1.14286 3.68257,7.74609 7.11117,7.6191 l 3.4286,-0.12698 c 0,0 7.87307,-2.5397 13.96836,-6.73021 6.09528,-4.19051 14.73027,-10.03182 14.73027,-10.03182 0,0 6.98418,5.71432 16.25409,7.36513 9.26991,1.65081 19.55571,2.15875 27.3018,-0.38095 7.74609,-2.53971 15.61916,-7.11117 17.77791,-7.49213 2.15875,-0.38095 3.30161,-0.12698 3.30161,-0.12698 0,0 3.30162,4.06352 7.61911,6.22227 4.31749,2.15875 13.07946,5.9683 15.3652,8.00006 2.28573,2.03176 9.52388,7.619107 12.31755,11.555637 2.79367,3.93654 5.58734,6.22227 8.12705,9.77786 2.5397,3.55558 3.17462,5.58734 7.11116,6.60322 3.93654,1.01588 9.90484,1.77779 15.49218,1.01588 5.58735,-0.76191 11.04771,-1.26985 11.04771,-1.26985 l 3.30161,4.19051 c 0,0 2.5397,-0.50794 4.06352,0.25397 1.52382,0.76191 2.92066,2.15875 6.60323,2.5397 3.68257,0.38096 9.14293,1.14287 9.14293,1.14287 0,0 2.15874,2.79367 3.30161,4.57146 1.14286,1.77779 3.68257,3.30161 3.93654,3.80955 0.25397,0.50795 0.38095,0.76192 0.76191,1.39684 0.38095,0.63493 2.03176,1.77779 2.92065,7.74609 0.8889,5.9683 3.68257,13.58741 3.68257,13.58741 0,0 -4.06352,-11.80962 -5.84131,-15.49218 -1.77779,-3.68257 -4.44448,-6.22227 -7.74609,-6.47624 -3.30162,-0.25397 -7.74609,2.66668 -9.14293,3.04764 -1.39684,0.38095 -5.0794,2.03176 -5.71433,0.88889 l -0.63493,-1.14286 c 0,0 0.38096,-3.30161 -1.14286,-2.03176 -1.52382,1.26985 -1.65081,4.95241 -6.47624,1.26985 -4.82544,-3.68257 -8.76197,-6.09529 -11.9366,-6.34926 -3.17463,-0.25397 -2.66669,-2.28573 -3.80955,-2.28573 -1.14287,0 -6.60323,2.79367 -6.60323,2.79367 0,0 -8.63499,1.90478 -12.95248,0.12699 -4.31749,-1.77779 -4.31749,-3.4286 -6.34925,-6.73021 -2.03177,-3.30162 -5.46036,-6.22227 -5.46036,-6.22227 0,0 -4.44448,-3.04764 -8.25403,-3.17463 -3.80956,-0.12698 -5.58735,2.15875 -4.3175,3.93654 1.26985,1.77779 5.20639,5.71433 6.34926,7.6191 1.14286,1.90478 1.90477,7.11117 2.92065,8.76198 1.01589,1.6508 7.23816,6.73021 7.23816,6.73021 0,0 8.88895,7.6191 10.79373,8.76197 1.90477,1.14286 2.79367,1.6508 4.82543,1.77779 2.03176,0.12698 6.09529,5.46036 6.09529,5.46036 0,0 4.69845,3.04764 6.22227,3.80955 1.52382,0.76191 5.9683,4.31749 6.73021,4.44448 0.76191,0.12698 1.52382,2.03176 -5.84132,-0.25397 -7.36513,-2.28573 -8.508,-3.68257 -12.82549,-6.09529 -4.3175,-2.41271 -16.12711,-12.95248 -16.12711,-12.95248 l -13.20645,-12.44453 c 0,0 -6.47624,-5.84132 -9.26991,-8.63499 -2.79367,-2.79367 -8.12705,-8.76197 -10.53977,-8.38102 -2.41271,0.38096 -9.01594,5.33338 -9.26991,10.2858 -0.25397,4.95241 2.92066,15.23821 2.92066,15.23821 l 1.77779,5.33337 c 0,0 -1.14286,0.25397 -6.60322,-4.19051 -5.46036,-4.44448 -4.95242,-5.46036 -7.7461,-9.14292 -2.79367,-3.68257 -6.09528,-7.61911 -8.38101,-8.88896 -2.28573,-1.26985 -8.25403,-1.65081 -8.88896,-1.39684 -0.63492,0.25397 -1.39683,4.69845 -1.01588,5.46036 0.38096,0.76191 -0.12698,1.90478 -2.66669,1.01588 -2.5397,-0.88889 -3.80955,0.12699 -4.82543,2.66669 -1.01588,2.5397 0.8889,6.60322 3.4286,9.01594 2.5397,2.41272 5.84131,5.20639 7.23815,5.58735 1.39683,0.38095 4.19051,2.15874 4.69845,3.42859 0.50794,1.26985 -0.76191,3.80956 -0.38096,6.47624 0.38096,2.66669 1.26985,5.46036 3.4286,7.61911 2.15875,2.15875 6.60322,7.49212 6.60322,7.49212 0,0 1.26986,5.33337 -2.28573,5.58734 -3.55558,0.25397 -4.69845,1.01589 -8.63498,-2.03176 -3.93654,-3.04764 -11.04771,-10.03182 -12.95248,-10.79373 -1.90478,-0.76191 -1.52383,-2.03176 -4.3175,-4.57146 -2.79367,-2.53971 -4.19051,-3.93654 -7.23815,-4.19051 -3.04764,-0.25397 -5.0794,1.77779 -7.87307,-1.52382 -2.79368,-3.30162 -5.58735,-9.01595 -9.26992,-11.9366 -3.68256,-2.92066 -3.68256,-2.28573 -6.09528,-5.20639 -2.41272,-2.92066 -2.15875,-3.93654 -4.82543,-5.9683 -2.66669,-2.03176 -7.87308,-9.01594 -7.87308,-9.01594 0,0 2.66669,3.17462 0,4.44448 -2.66669,1.26985 -5.84132,2.79367 -7.49212,1.26985 -1.65081,-1.52382 -6.09529,-8.38102 -6.09529,-8.38102 0,0 3.55559,6.60323 0.8889,8.76197 -2.66669,2.15875 -3.68257,3.4286 -8.63499,2.41272 -4.95242,-1.01588 -11.80961,-4.19051 -12.95248,-4.57146 -1.14286,-0.38096 8.00006,7.23815 8.12705,7.74609 0.12698,0.50794 6.47624,6.34925 8.508,6.73021 2.03176,0.38095 4.44448,3.17462 5.46036,3.55558 1.01588,0.38095 6.60322,6.34925 6.60322,6.34925 0,0 1.14287,2.41272 1.52383,3.4286 0.38095,1.01588 3.80955,3.4286 6.22227,5.20639 2.41271,1.77779 7.6191,4.95242 7.6191,4.95242 0,0 3.17463,3.17463 -3.80955,0.12698 -6.98418,-3.04764 -9.14293,-3.04764 -9.52388,-4.1905 -0.38096,-1.14287 0.50794,-4.95242 -4.19051,-7.49212 -4.69845,-2.53971 -9.52388,-5.20639 -11.42866,-7.7461 -1.90478,-2.5397 -5.9683,-6.85719 -8.63499,-8.12704 -2.66668,-1.26985 -5.20639,0.12698 -7.11116,-1.77779 -1.90478,-1.90478 -3.93654,-5.33338 -3.93654,-7.49212 0,-2.15875 -1.26985,-4.69845 -1.90478,-4.95242 -0.63492,-0.25397 -6.73021,-3.55559 -6.73021,-3.55559 0,0 -2.92065,2.53971 -2.5397,4.69845 0.38096,2.15875 0.25397,5.58735 0.25397,5.58735 0,0 -3.93654,0.63492 -3.93654,2.15874 0,1.52383 -0.50794,5.58735 -0.50794,5.58735 l -6.98417,9.26991 -3.55559,4.95242 c 0,0 -0.25397,-3.55558 1.26985,-5.58734 1.52382,-2.03177 4.95242,-6.34926 5.9683,-7.49213 1.01588,-1.14286 1.90478,-6.09528 2.41272,-8.38101 0.50794,-2.28573 2.66668,-6.47624 2.79367,-7.11117 0.12698,-0.63492 1.39683,-3.68257 -0.76191,-6.09528 -2.15875,-2.41272 -3.17463,-3.68257 -3.17463,-3.68257 0,0 -1.90478,3.04764 -9.77785,5.20639 -7.87307,2.15875 -8.76197,2.92066 -11.80961,1.65081 -3.04764,-1.26986 -3.55559,-2.66669 -2.15875,-5.84132 1.39684,-3.17463 3.80955,-7.36514 2.5397,-7.61911 -1.26985,-0.25397 -2.79367,0.76192 -4.19051,1.39684 -1.39683,0.63493 -2.5397,0.50794 -2.5397,0.50794 z"
       style="fill:#ffffff;fill-opacity:1;fill-rule:evenodd;stroke:#008ece;stroke-width:1;stroke-linecap:butt;stroke-linejoin:miter;stroke-miterlimit:4;stroke-dasharray:none;stroke-opacity:1" /></g><text
     xml:space="preserve"
     style="font-style:normal;font-weight:normal;font-size:40px;line-height:125%;font-family:sans-serif;letter-spacing:0px;word-spacing:0px;fill:#008ece;fill-opacity:1;stroke:none;stroke-width:1px;stroke-linecap:butt;stroke-linejoin:miter;stroke-opacity:1"
     x="767.10156"
     y="158.16547"
     id="text3442"
     sodipodi:linespacing="125%"><tspan
       sodipodi:role="line"
       id="tspan3444"
       x="767.10156"
       y="158.16547"
       style="font-style:normal;font-variant:normal;font-weight:normal;font-stretch:normal;font-size:75px;line-height:110.00000238%;font-family:'Mode G';-inkscape-font-specification:'Mode G';text-align:end;text-anchor:end;fill:#008ece;fill-opacity:1">Drupaleando</tspan><tspan
       sodipodi:role="line"
       x="767.10156"
       y="240.66547"
       style="font-style:normal;font-variant:normal;font-weight:normal;font-stretch:normal;font-size:75px;line-height:110.00000238%;font-family:'Mode G';-inkscape-font-specification:'Mode G';text-align:end;text-anchor:end;fill:#008ece;fill-opacity:1"
       id="tspan4178"> Altura</tspan></text>
<text
     xml:space="preserve"
     style="font-style:normal;font-weight:normal;font-size:40px;line-height:125%;font-family:sans-serif;letter-spacing:0px;word-spacing:0px;fill:#008ece;fill-opacity:1;stroke:none;stroke-width:1px;stroke-linecap:butt;stroke-linejoin:miter;stroke-opacity:1"
     x="408.69632"
     y="212.47528"
     id="text4182"
     sodipodi:linespacing="125%"><tspan
       sodipodi:role="line"
       id="tspan4184"
       x="408.69632"
       y="212.47528"
       style="font-style:normal;font-variant:normal;font-weight:normal;font-stretch:normal;font-size:50px;font-family:'Mode G';-inkscape-font-specification:'Mode G';fill:#008ece;fill-opacity:1">con</tspan></text>
</svg>